  0
SECTION
  2
HEADER
  9
$ACADVER
  1
AC1024
  9
$ACADMAINTVER
 70
6
  9
$DWGCODEPAGE
  3
ANSI_1252
  9
$LASTSAVEDBY
  1
ezdxf
  9
$INSBASE
 10
0.0
 20
0.0
 30
0.0
  9
$EXTMIN
 10
1e+20
 20
1e+20
 30
1e+20
  9
$EXTMAX
 10
-1e+20
 20
-1e+20
 30
-1e+20
  9
$LIMMIN
 10
0.0
 20
0.0
  9
$LIMMAX
 10
420.0
 20
297.0
  9
$ORTHOMODE
 70
0
  9
$REGENMODE
 70
1
  9
$FILLMODE
 70
1
  9
$QTEXTMODE
 70
0
  9
$MIRRTEXT
 70
1
  9
$LTSCALE
 40
1.0
  9
$ATTMODE
 70
1
  9
$TEXTSIZE
 40
2.5
  9
$TRACEWID
 40
1.0
  9
$TEXTSTYLE
  7
Standard
  9
$CLAYER
  8
0
  9
$CELTYPE
  6
ByLayer
  9
$CECOLOR
 62
256
  9
$CELTSCALE
 40
1.0
  9
$DISPSILH
 70
0
  9
$DIMSCALE
 40
1.0
  9
$DIMASZ
 40
2.5
  9
$DIMEXO
 40
0.625
  9
$DIMDLI
 40
3.75
  9
$DIMRND
 40
0.0
  9
$DIMDLE
 40
0.0
  9
$DIMEXE
 40
1.25
  9
$DIMTP
 40
0.0
  9
$DIMTM
 40
0.0
  9
$DIMTXT
 40
2.5
  9
$DIMCEN
 40
2.5
  9
$DIMTSZ
 40
0.0
  9
$DIMTOL
 70
0
  9
$DIMLIM
 70
0
  9
$DIMTIH
 70
0
  9
$DIMTOH
 70
0
  9
$DIMSE1
 70
0
  9
$DIMSE2
 70
0
  9
$DIMTAD
 70
1
  9
$DIMZIN
 70
8
  9
$DIMBLK
  1

  9
$DIMASO
 70
1
  9
$DIMSHO
 70
1
  9
$DIMPOST
  1

  9
$DIMAPOST
  1

  9
$DIMALT
 70
0
  9
$DIMALTD
 70
3
  9
$DIMALTF
 40
0.03937007874
  9
$DIMLFAC
 40
1.0
  9
$DIMTOFL
 70
1
  9
$DIMTVP
 40
0.0
  9
$DIMTIX
 70
0
  9
$DIMSOXD
 70
0
  9
$DIMSAH
 70
0
  9
$DIMBLK1
  1

  9
$DIMBLK2
  1

  9
$DIMSTYLE
  2
ISO-25
  9
$DIMCLRD
 70
0
  9
$DIMCLRE
 70
0
  9
$DIMCLRT
 70
0
  9
$DIMTFAC
 40
1.0
  9
$DIMGAP
 40
0.625
  9
$DIMJUST
 70
0
  9
$DIMSD1
 70
0
  9
$DIMSD2
 70
0
  9
$DIMTOLJ
 70
0
  9
$DIMTZIN
 70
8
  9
$DIMALTZ
 70
0
  9
$DIMALTTZ
 70
0
  9
$DIMUPT
 70
0
  9
$DIMDEC
 70
2
  9
$DIMTDEC
 70
2
  9
$DIMALTU
 70
2
  9
$DIMALTTD
 70
3
  9
$DIMTXSTY
  7
Standard
  9
$DIMAUNIT
 70
0
  9
$DIMADEC
 70
0
  9
$DIMALTRND
 40
0.0
  9
$DIMAZIN
 70
0
  9
$DIMDSEP
 70
44
  9
$DIMATFIT
 70
3
  9
$DIMFRAC
 70
0
  9
$DIMLDRBLK
  1

  9
$DIMLUNIT
 70
2
  9
$DIMLWD
 70
-2
  9
$DIMLWE
 70
-2
  9
$DIMTMOVE
 70
0
  9
$DIMFXL
 40
1.0
  9
$DIMFXLON
 70
0
  9
$DIMJOGANG
 40
0.785398163397
  9
$DIMTFILL
 70
0
  9
$DIMTFILLCLR
 70
0
  9
$DIMARCSYM
 70
0
  9
$DIMLTYPE
  6

  9
$DIMLTEX1
  6

  9
$DIMLTEX2
  6

  9
$DIMTXTDIRECTION
 70
0
  9
$LUNITS
 70
2
  9
$LUPREC
 70
4
  9
$SKETCHINC
 40
1.0
  9
$FILLETRAD
 40
10.0
  9
$AUNITS
 70
0
  9
$AUPREC
 70
2
  9
$MENU
  1
.
  9
$ELEVATION
 40
0.0
  9
$PELEVATION
 40
0.0
  9
$THICKNESS
 40
0.0
  9
$LIMCHECK
 70
0
  9
$CHAMFERA
 40
0.0
  9
$CHAMFERB
 40
0.0
  9
$CHAMFERC
 40
0.0
  9
$CHAMFERD
 40
0.0
  9
$SKPOLY
 70
0
  9
$TDCREATE
 40
2461259.2504745373
  9
$TDUCREATE
 40
2458532.153996898
  9
$TDUPDATE
 40
2461259.2504745373
  9
$TDUUPDATE
 40
2458532.1544311
  9
$TDINDWG
 40
0.0
  9
$TDUSRTIMER
 40
0.0
  9
$USRTIMER
 70
1
  9
$ANGBASE
 50
0.0
  9
$ANGDIR
 70
0
  9
$PDMODE
 70
0
  9
$PDSIZE
 40
0.0
  9
$PLINEWID
 40
0.0
  9
$SPLFRAME
 70
0
  9
$SPLINETYPE
 70
6
  9
$SPLINESEGS
 70
8
  9
$HANDSEED
  5
18D
  9
$SURFTAB1
 70
6
  9
$SURFTAB2
 70
6
  9
$SURFTYPE
 70
6
  9
$SURFU
 70
6
  9
$SURFV
 70
6
  9
$UCSBASE
  2

  9
$UCSNAME
  2

  9
$UCSORG
 10
0.0
 20
0.0
 30
0.0
  9
$UCSXDIR
 10
1.0
 20
0.0
 30
0.0
  9
$UCSYDIR
 10
0.0
 20
1.0
 30
0.0
  9
$UCSORTHOREF
  2

  9
$UCSORTHOVIEW
 70
0
  9
$UCSORGTOP
 10
0.0
 20
0.0
 30
0.0
  9
$UCSORGBOTTOM
 10
0.0
 20
0.0
 30
0.0
  9
$UCSORGLEFT
 10
0.0
 20
0.0
 30
0.0
  9
$UCSORGRIGHT
 10
0.0
 20
0.0
 30
0.0
  9
$UCSORGFRONT
 10
0.0
 20
0.0
 30
0.0
  9
$UCSORGBACK
 10
0.0
 20
0.0
 30
0.0
  9
$PUCSBASE
  2

  9
$PUCSNAME
  2

  9
$PUCSORG
 10
0.0
 20
0.0
 30
0.0
  9
$PUCSXDIR
 10
1.0
 20
0.0
 30
0.0
  9
$PUCSYDIR
 10
0.0
 20
1.0
 30
0.0
  9
$PUCSORTHOREF
  2

  9
$PUCSORTHOVIEW
 70
0
  9
$PUCSORGTOP
 10
0.0
 20
0.0
 30
0.0
  9
$PUCSORGBOTTOM
 10
0.0
 20
0.0
 30
0.0
  9
$PUCSORGLEFT
 10
0.0
 20
0.0
 30
0.0
  9
$PUCSORGRIGHT
 10
0.0
 20
0.0
 30
0.0
  9
$PUCSORGFRONT
 10
0.0
 20
0.0
 30
0.0
  9
$PUCSORGBACK
 10
0.0
 20
0.0
 30
0.0
  9
$USERI1
 70
0
  9
$USERI2
 70
0
  9
$USERI3
 70
0
  9
$USERI4
 70
0
  9
$USERI5
 70
0
  9
$USERR1
 40
0.0
  9
$USERR2
 40
0.0
  9
$USERR3
 40
0.0
  9
$USERR4
 40
0.0
  9
$USERR5
 40
0.0
  9
$WORLDVIEW
 70
1
  9
$SHADEDGE
 70
3
  9
$SHADEDIF
 70
70
  9
$TILEMODE
 70
1
  9
$MAXACTVP
 70
64
  9
$PINSBASE
 10
0.0
 20
0.0
 30
0.0
  9
$PLIMCHECK
 70
0
  9
$PEXTMIN
 10
1e+20
 20
1e+20
 30
1e+20
  9
$PEXTMAX
 10
-1e+20
 20
-1e+20
 30
-1e+20
  9
$PLIMMIN
 10
0.0
 20
0.0
  9
$PLIMMAX
 10
420.0
 20
297.0
  9
$UNITMODE
 70
0
  9
$VISRETAIN
 70
1
  9
$PLINEGEN
 70
0
  9
$PSLTSCALE
 70
1
  9
$TREEDEPTH
 70
3020
  9
$CMLSTYLE
  2
Standard
  9
$CMLJUST
 70
0
  9
$CMLSCALE
 40
20.0
  9
$PROXYGRAPHICS
 70
1
  9
$MEASUREMENT
 70
1
  9
$CELWEIGHT
370
-1
  9
$ENDCAPS
280
0
  9
$JOINSTYLE
280
0
  9
$LWDISPLAY
290
0
  9
$INSUNITS
 70
4
  9
$HYPERLINKBASE
  1

  9
$STYLESHEET
  1

  9
$XEDIT
290
1
  9
$CEPSNTYPE
380
0
  9
$PSTYLEMODE
290
1
  9
$FINGERPRINTGUID
  2
{6FE73C60-2BEE-444F-B09D-1F59D3FD24DA}
  9
$VERSIONGUID
  2
{3B147A85-FAF3-40E2-BB5A-37B5A2A8FEBF}
  9
$EXTNAMES
290
1
  9
$PSVPSCALE
 40
0.0
  9
$OLESTARTUP
290
0
  9
$SORTENTS
280
127
  9
$INDEXCTL
280
0
  9
$HIDETEXT
280
1
  9
$XCLIPFRAME
280
1
  9
$HALOGAP
280
0
  9
$OBSCOLOR
 70
257
  9
$OBSLTYPE
280
0
  9
$INTERSECTIONDISPLAY
280
0
  9
$INTERSECTIONCOLOR
 70
257
  9
$DIMASSOC
280
2
  9
$PROJECTNAME
  1

  9
$CAMERADISPLAY
290
0
  9
$LENSLENGTH
 40
50.0
  9
$CAMERAHEIGHT
 40
0.0
  9
$STEPSPERSEC
 40
24.0
  9
$STEPSIZE
 40
100.0
  9
$3DDWFPREC
 40
2.0
  9
$PSOLWIDTH
 40
0.005
  9
$PSOLHEIGHT
 40
0.08
  9
$LOFTANG1
 40
1.570796326795
  9
$LOFTANG2
 40
1.570796326795
  9
$LOFTMAG1
 40
0.0
  9
$LOFTMAG2
 40
0.0
  9
$LOFTPARAM
 70
7
  9
$LOFTNORMALS
280
1
  9
$LATITUDE
 40
37.795
  9
$LONGITUDE
 40
-122.394
  9
$NORTHDIRECTION
 40
0.0
  9
$TIMEZONE
 70
-8000
  9
$LIGHTGLYPHDISPLAY
280
1
  9
$TILEMODELIGHTSYNCH
280
1
  9
$CMATERIAL
347
20
  9
$SOLIDHIST
280
0
  9
$SHOWHIST
280
1
  9
$DWFFRAME
280
2
  9
$DGNFRAME
280
2
  9
$REALWORLDSCALE
290
1
  9
$INTERFERECOLOR
 62
256
  9
$CSHADOW
280
0
  9
$SHADOWPLANELOCATION
 40
0.0
  0
ENDSEC
  0
SECTION
  2
CLASSES
  0
CLASS
  1
ACDBDICTIONARYWDFLT
  2
AcDbDictionaryWithDefault
  3
ObjectDBX Classes
 90
0
 91
0
280
0
281
0
  0
CLASS
  1
SUN
  2
AcDbSun
  3
SCENEOE
 90
1153
 91
0
280
0
281
0
  0
CLASS
  1
VISUALSTYLE
  2
AcDbVisualStyle
  3
ObjectDBX Classes
 90
4095
 91
0
280
0
281
0
  0
CLASS
  1
MATERIAL
  2
AcDbMaterial
  3
ObjectDBX Classes
 90
1153
 91
0
280
0
281
0
  0
CLASS
  1
SCALE
  2
AcDbScale
  3
ObjectDBX Classes
 90
1153
 91
0
280
0
281
0
  0
CLASS
  1
TABLESTYLE
  2
AcDbTableStyle
  3
ObjectDBX Classes
 90
4095
 91
0
280
0
281
0
  0
CLASS
  1
MLEADERSTYLE
  2
AcDbMLeaderStyle
  3
ACDB_MLEADERSTYLE_CLASS
 90
4095
 91
0
280
0
281
0
  0
CLASS
  1
DICTIONARYVAR
  2
AcDbDictionaryVar
  3
ObjectDBX Classes
 90
0
 91
0
280
0
281
0
  0
CLASS
  1
CELLSTYLEMAP
  2
AcDbCellStyleMap
  3
ObjectDBX Classes
 90
1152
 91
0
280
0
281
0
  0
CLASS
  1
MENTALRAYRENDERSETTINGS
  2
AcDbMentalRayRenderSettings
  3
SCENEOE
 90
1024
 91
0
280
0
281
0
  0
CLASS
  1
ACDBDETAILVIEWSTYLE
  2
AcDbDetailViewStyle
  3
ObjectDBX Classes
 90
1025
 91
0
280
0
281
0
  0
CLASS
  1
ACDBSECTIONVIEWSTYLE
  2
AcDbSectionViewStyle
  3
ObjectDBX Classes
 90
1025
 91
0
280
0
281
0
  0
CLASS
  1
RASTERVARIABLES
  2
AcDbRasterVariables
  3
ISM
 90
0
 91
0
280
0
281
0
  0
CLASS
  1
ACDBPLACEHOLDER
  2
AcDbPlaceHolder
  3
ObjectDBX Classes
 90
0
 91
0
280
0
281
0
  0
CLASS
  1
LAYOUT
  2
AcDbLayout
  3
ObjectDBX Classes
 90
0
 91
0
280
0
281
0
  0
ENDSEC
  0
SECTION
  2
TABLES
  0
TABLE
  2
VPORT
  5
8
330
0
100
AcDbSymbolTable
 70
1
  0
VPORT
  5
23
330
8
100
AcDbSymbolTableRecord
100
AcDbViewportTableRecord
  2
*Active
 70
0
 10
0.0
 20
0.0
 11
1.0
 21
1.0
 12
0.0
 22
0.0
 13
0.0
 23
0.0
 14
0.5
 24
0.5
 15
0.5
 25
0.5
 16
0.0
 26
0.0
 36
1.0
 17
0.0
 27
0.0
 37
0.0
 40
1000.0
 41
1.34
 42
50.0
 43
0.0
 44
0.0
 50
0.0
 51
0.0
 71
0
 72
1000
 73
1
 74
3
 75
0
 76
0
 77
0
 78
0
281
0
 65
0
146
0.0
  0
ENDTAB
  0
TABLE
  2
LTYPE
  5
2
330
0
100
AcDbSymbolTable
 70
3
  0
LTYPE
  5
24
330
2
100
AcDbSymbolTableRecord
100
AcDbLinetypeTableRecord
  2
ByBlock
 70
0
  3

 72
65
 73
0
 40
0.0
  0
LTYPE
  5
25
330
2
100
AcDbSymbolTableRecord
100
AcDbLinetypeTableRecord
  2
ByLayer
 70
0
  3

 72
65
 73
0
 40
0.0
  0
LTYPE
  5
26
330
2
100
AcDbSymbolTableRecord
100
AcDbLinetypeTableRecord
  2
Continuous
 70
0
  3

 72
65
 73
0
 40
0.0
  0
ENDTAB
  0
TABLE
  2
LAYER
  5
1
330
0
100
AcDbSymbolTable
 70
10
  0
LAYER
  5
27
330
1
100
AcDbSymbolTableRecord
100
AcDbLayerTableRecord
  2
0
 70
0
 62
7
  6
Continuous
370
-3
390
13
347
21
  0
LAYER
  5
28
330
1
100
AcDbSymbolTableRecord
100
AcDbLayerTableRecord
  2
Defpoints
 70
0
 62
7
  6
Continuous
290
0
370
-3
390
13
347
21
  0
LAYER
  5
2F
330
1
100
AcDbSymbolTableRecord
100
AcDbLayerTableRecord
  2
OUTLINE
 70
0
 62
7
  6
Continuous
370
-3
390
13
347
21
  0
LAYER
  5
30
330
1
100
AcDbSymbolTableRecord
100
AcDbLayerTableRecord
  2
HIDDEN
 70
0
 62
8
  6
Continuous
370
-3
390
13
347
21
  0
LAYER
  5
31
330
1
100
AcDbSymbolTableRecord
100
AcDbLayerTableRecord
  2
CENTER
 70
0
 62
5
  6
Continuous
370
-3
390
13
347
21
  0
LAYER
  5
32
330
1
100
AcDbSymbolTableRecord
100
AcDbLayerTableRecord
  2
DIMS
 70
0
 62
1
  6
Continuous
370
-3
390
13
347
21
  0
LAYER
  5
33
330
1
100
AcDbSymbolTableRecord
100
AcDbLayerTableRecord
  2
ANNOTATIONS
 70
0
 62
3
  6
Continuous
370
-3
390
13
347
21
  0
LAYER
  5
34
330
1
100
AcDbSymbolTableRecord
100
AcDbLayerTableRecord
  2
TITLE
 70
0
 62
2
  6
Continuous
370
-3
390
13
347
21
  0
LAYER
  5
35
330
1
100
AcDbSymbolTableRecord
100
AcDbLayerTableRecord
  2
TEXT
 70
0
 62
4
  6
Continuous
370
-3
390
13
347
21
  0
LAYER
  5
36
330
1
100
AcDbSymbolTableRecord
100
AcDbLayerTableRecord
  2
PHONE_REF
 70
0
 62
6
  6
Continuous
370
-3
390
13
347
21
  0
ENDTAB
  0
TABLE
  2
STYLE
  5
5
330
0
100
AcDbSymbolTable
 70
1
  0
STYLE
  5
29
330
5
100
AcDbSymbolTableRecord
100
AcDbTextStyleTableRecord
  2
Standard
 70
0
 40
0.0
 41
1.0
 50
0.0
 71
0
 42
2.5
  3
txt
  4

  0
ENDTAB
  0
TABLE
  2
VIEW
  5
7
330
0
100
AcDbSymbolTable
 70
0
  0
ENDTAB
  0
TABLE
  2
UCS
  5
6
330
0
100
AcDbSymbolTable
 70
0
  0
ENDTAB
  0
TABLE
  2
APPID
  5
3
330
0
100
AcDbSymbolTable
 70
3
  0
APPID
  5
2A
330
3
100
AcDbSymbolTableRecord
100
AcDbRegAppTableRecord
  2
ACAD
 70
0
  0
APPID
  5
18A
330
3
100
AcDbSymbolTableRecord
100
AcDbRegAppTableRecord
  2
HATCHBACKGROUNDCOLOR
 70
0
  0
APPID
  5
18B
330
3
100
AcDbSymbolTableRecord
100
AcDbRegAppTableRecord
  2
EZDXF
 70
0
  0
ENDTAB
  0
TABLE
  2
DIMSTYLE
  5
4
330
0
100
AcDbSymbolTable
 70
1
100
AcDbDimStyleTable
  0
DIMSTYLE
105
2B
330
4
100
AcDbSymbolTableRecord
100
AcDbDimStyleTableRecord
  2
Standard
 70
0
 40
1.0
 41
2.5
 42
0.625
 43
3.75
 44
1.25
 45
0.0
 46
0.0
 47
0.0
 48
0.0
 49
2.5
140
2.5
141
2.5
142
0.0
143
0.03937007874
144
1.0
145
0.0
146
1.0
147
0.625
148
0.0
 69
0
 70
0
 71
0
 72
0
 73
0
 74
0
 75
0
 76
0
 77
1
 78
8
 79
3
170
0
171
3
172
1
173
0
174
0
175
0
176
0
177
0
178
0
179
2
271
2
272
2
273
2
274
3
275
0
276
0
277
2
278
44
279
0
280
0
281
0
282
0
283
0
284
8
285
0
286
0
288
0
289
3
290
0
371
-2
372
-2
  0
ENDTAB
  0
TABLE
  2
BLOCK_RECORD
  5
9
330
0
100
AcDbSymbolTable
 70
2
  0
BLOCK_RECORD
  5
17
330
9
100
AcDbSymbolTableRecord
100
AcDbBlockTableRecord
  2
*Model_Space
340
1A
 70
0
280
1
281
0
  0
BLOCK_RECORD
  5
1B
330
9
100
AcDbSymbolTableRecord
100
AcDbBlockTableRecord
  2
*Paper_Space
340
1E
 70
0
280
1
281
0
  0
ENDTAB
  0
ENDSEC
  0
SECTION
  2
BLOCKS
  0
BLOCK
  5
18
330
17
100
AcDbEntity
  8
0
100
AcDbBlockBegin
  2
*Model_Space
 70
0
 10
0.0
 20
0.0
 30
0.0
  3
*Model_Space
  1

  0
ENDBLK
  5
19
330
17
100
AcDbEntity
  8
0
100
AcDbBlockEnd
  0
BLOCK
  5
1C
330
1B
100
AcDbEntity
  8
0
100
AcDbBlockBegin
  2
*Paper_Space
 70
0
 10
0.0
 20
0.0
 30
0.0
  3
*Paper_Space
  1

  0
ENDBLK
  5
1D
330
1B
100
AcDbEntity
  8
0
100
AcDbBlockEnd
  0
ENDSEC
  0
SECTION
  2
ENTITIES
  0
TEXT
  5
37
330
17
100
AcDbEntity
  8
TITLE
100
AcDbText
 10
0.0
 20
420.0
 30
0.0
 40
7.5
  1
DESIGN 04 — Multi-Organizer Phone Stand (PRIMARY)
 11
0.0
 21
420.0
 31
0.0
100
AcDbText
  0
TEXT
  5
38
330
17
100
AcDbEntity
  8
TEXT
100
AcDbText
 10
0.0
 20
410.0
 30
0.0
 40
3.2
  1
Angled stand + tray + card tiers + pen bin. Orthographic: Front / Top / Left / Right.
 11
0.0
 21
410.0
 31
0.0
100
AcDbText
  0
TEXT
  5
39
330
17
100
AcDbEntity
  8
TEXT
100
AcDbText
 10
0.0
 20
402.0
 30
0.0
 40
2.8
  1
Ref. phone (avg w/ case): 78 W × 160 H × 12 T mm  |  Units: mm  |  Scale 1:1  |  Do not scale drawing
 11
0.0
 21
402.0
 31
0.0
100
AcDbText
  0
TEXT
  5
3A
330
17
100
AcDbEntity
  8
ANNOTATIONS
100
AcDbText
 10
0.0
 20
385.0
 30
0.0
 40
3.2
  1
PRIMARY DESIGN — based on reference desk organizer photo
 11
0.0
 21
385.0
 31
0.0
100
AcDbText
  0
TEXT
  5
3B
330
17
100
AcDbEntity
  8
TEXT
100
AcDbText
 10
0.0
 20
376.0
 30
0.0
 40
2.8
  1
Advantages: stable wide base, comfortable viewing angle, multi-function storage for pens/cards/small parts.
 11
0.0
 21
376.0
 31
0.0
100
AcDbText
  0
TEXT
  5
3C
330
17
100
AcDbEntity
  8
TITLE
100
AcDbText
 10
620.0
 20
400.0
 30
0.0
 40
3.5
  1
LAYERS
 11
620.0
 21
400.0
 31
0.0
100
AcDbText
  0
LINE
  5
3D
330
17
100
AcDbEntity
  8
OUTLINE
100
AcDbLine
 10
620.0
 20
394.2
 30
0.0
 11
630.0
 21
394.2
 31
0.0
  0
TEXT
  5
3E
330
17
100
AcDbEntity
  8
TEXT
100
AcDbText
 10
634.0
 20
393.0
 30
0.0
 40
2.5
  1
OUTLINE — Geometry
 11
634.0
 21
393.0
 31
0.0
100
AcDbText
  0
LINE
  5
3F
330
17
100
AcDbEntity
  8
HIDDEN
100
AcDbLine
 10
620.0
 20
388.7
 30
0.0
 11
630.0
 21
388.7
 31
0.0
  0
TEXT
  5
40
330
17
100
AcDbEntity
  8
TEXT
100
AcDbText
 10
634.0
 20
387.5
 30
0.0
 40
2.5
  1
HIDDEN — Hidden edges
 11
634.0
 21
387.5
 31
0.0
100
AcDbText
  0
LINE
  5
41
330
17
100
AcDbEntity
  8
CENTER
100
AcDbLine
 10
620.0
 20
383.2
 30
0.0
 11
630.0
 21
383.2
 31
0.0
  0
TEXT
  5
42
330
17
100
AcDbEntity
  8
TEXT
100
AcDbText
 10
634.0
 20
382.0
 30
0.0
 40
2.5
  1
CENTER — Centerlines
 11
634.0
 21
382.0
 31
0.0
100
AcDbText
  0
LINE
  5
43
330
17
100
AcDbEntity
  8
DIMS
100
AcDbLine
 10
620.0
 20
377.7
 30
0.0
 11
630.0
 21
377.7
 31
0.0
  0
TEXT
  5
44
330
17
100
AcDbEntity
  8
TEXT
100
AcDbText
 10
634.0
 20
376.5
 30
0.0
 40
2.5
  1
DIMS — Dimensions
 11
634.0
 21
376.5
 31
0.0
100
AcDbText
  0
LINE
  5
45
330
17
100
AcDbEntity
  8
ANNOTATIONS
100
AcDbLine
 10
620.0
 20
372.2
 30
0.0
 11
630.0
 21
372.2
 31
0.0
  0
TEXT
  5
46
330
17
100
AcDbEntity
  8
TEXT
100
AcDbText
 10
634.0
 20
371.0
 30
0.0
 40
2.5
  1
ANNOTATIONS — Callouts / notes
 11
634.0
 21
371.0
 31
0.0
100
AcDbText
  0
LINE
  5
47
330
17
100
AcDbEntity
  8
TITLE
100
AcDbLine
 10
620.0
 20
366.7
 30
0.0
 11
630.0
 21
366.7
 31
0.0
  0
TEXT
  5
48
330
17
100
AcDbEntity
  8
TEXT
100
AcDbText
 10
634.0
 20
365.5
 30
0.0
 40
2.5
  1
TITLE — Titles
 11
634.0
 21
365.5
 31
0.0
100
AcDbText
  0
LINE
  5
49
330
17
100
AcDbEntity
  8
TEXT
100
AcDbLine
 10
620.0
 20
361.2
 30
0.0
 11
630.0
 21
361.2
 31
0.0
  0
TEXT
  5
4A
330
17
100
AcDbEntity
  8
TEXT
100
AcDbText
 10
634.0
 20
360.0
 30
0.0
 40
2.5
  1
TEXT — Labels
 11
634.0
 21
360.0
 31
0.0
100
AcDbText
  0
LINE
  5
4B
330
17
100
AcDbEntity
  8
PHONE_REF
100
AcDbLine
 10
620.0
 20
355.7
 30
0.0
 11
630.0
 21
355.7
 31
0.0
  0
TEXT
  5
4C
330
17
100
AcDbEntity
  8
TEXT
100
AcDbText
 10
634.0
 20
354.5
 30
0.0
 40
2.5
  1
PHONE_REF — Phone silhouette
 11
634.0
 21
354.5
 31
0.0
100
AcDbText
  0
TEXT
  5
4D
330
17
100
AcDbEntity
  8
TITLE
100
AcDbText
 10
40.0
 20
188.0
 30
0.0
 40
5.0
  1
FRONT VIEW
 11
40.0
 21
188.0
 31
0.0
100
AcDbText
  0
LWPOLYLINE
  5
4E
330
17
100
AcDbEntity
  8
OUTLINE
100
AcDbPolyline
 90
4
 70
1
 10
40.0
 20
80.0
 10
240.0
 20
80.0
 10
240.0
 20
86.0
 10
40.0
 20
86.0
  0
LWPOLYLINE
  5
4F
330
17
100
AcDbEntity
  8
OUTLINE
100
AcDbPolyline
 90
4
 70
1
 10
40.0
 20
86.0
 10
128.0
 20
86.0
 10
128.0
 20
94.0
 10
40.0
 20
94.0
  0
LWPOLYLINE
  5
50
330
17
100
AcDbEntity
  8
OUTLINE
100
AcDbPolyline
 90
4
 70
1
 10
40.0
 20
86.0
 10
128.0
 20
86.0
 10
128.0
 20
176.630778703665
 10
40.0
 20
176.630778703665
  0
LINE
  5
51
330
17
100
AcDbEntity
  8
OUTLINE
100
AcDbLine
 10
40.0
 20
86.0
 30
0.0
 11
40.0
 21
176.630778703665
 31
0.0
  0
LWPOLYLINE
  5
52
330
17
100
AcDbEntity
  8
OUTLINE
100
AcDbPolyline
 90
4
 70
1
 10
128.0
 20
86.0
 10
240.0
 20
86.0
 10
240.0
 20
90.0
 10
128.0
 20
90.0
  0
LWPOLYLINE
  5
53
330
17
100
AcDbEntity
  8
OUTLINE
100
AcDbPolyline
 90
4
 70
1
 10
128.0
 20
86.0
 10
240.0
 20
86.0
 10
240.0
 20
114.0
 10
128.0
 20
114.0
  0
LWPOLYLINE
  5
54
330
17
100
AcDbEntity
  8
OUTLINE
100
AcDbPolyline
 90
4
 70
1
 10
128.0
 20
86.0
 10
240.0
 20
86.0
 10
240.0
 20
128.0
 10
128.0
 20
128.0
  0
LWPOLYLINE
  5
55
330
17
100
AcDbEntity
  8
OUTLINE
100
AcDbPolyline
 90
4
 70
1
 10
192.0
 20
86.0
 10
240.0
 20
86.0
 10
240.0
 20
158.0
 10
192.0
 20
158.0
  0
LWPOLYLINE
  5
56
330
17
100
AcDbEntity
  8
HIDDEN
100
AcDbPolyline
 90
4
 70
1
 10
195.0
 20
89.0
 10
237.0
 20
89.0
 10
237.0
 20
158.0
 10
195.0
 20
158.0
  0
LWPOLYLINE
  5
57
330
17
100
AcDbEntity
  8
PHONE_REF
100
AcDbPolyline
 90
4
 70
1
 10
45.0
 20
94.0
 10
123.0
 20
94.0
 10
123.0
 20
174.0
 10
45.0
 20
174.0
  0
TEXT
  5
58
330
17
100
AcDbEntity
  8
PHONE_REF
100
AcDbText
 10
50.0
 20
100.0
 30
0.0
 40
2.5
  1
PHONE
 11
50.0
 21
100.0
 31
0.0
100
AcDbText
  0
LINE
  5
59
330
17
100
AcDbEntity
  8
DIMS
100
AcDbLine
 10
40.0
 20
80.0
 30
0.0
 11
40.0
 21
62.0
 31
0.0
  0
LINE
  5
5A
330
17
100
AcDbEntity
  8
DIMS
100
AcDbLine
 10
240.0
 20
80.0
 30
0.0
 11
240.0
 21
62.0
 31
0.0
  0
LINE
  5
5B
330
17
100
AcDbEntity
  8
DIMS
100
AcDbLine
 10
40.0
 20
62.0
 30
0.0
 11
240.0
 21
62.0
 31
0.0
  0
LINE
  5
5C
330
17
100
AcDbEntity
  8
DIMS
100
AcDbLine
 10
38.0
 20
60.0
 30
0.0
 11
42.0
 21
64.0
 31
0.0
  0
LINE
  5
5D
330
17
100
AcDbEntity
  8
DIMS
100
AcDbLine
 10
238.0
 20
60.0
 30
0.0
 11
242.0
 21
64.0
 31
0.0
  0
TEXT
  5
5E
330
17
100
AcDbEntity
  8
DIMS
100
AcDbText
 10
140.0
 20
64.2
 30
0.0
 40
3.0
  1
200 OVERALL W
 72
1
 11
140.0
 21
64.2
 31
0.0
100
AcDbText
  0
LINE
  5
5F
330
17
100
AcDbEntity
  8
DIMS
100
AcDbLine
 10
40.0
 20
80.0
 30
0.0
 11
40.0
 21
44.0
 31
0.0
  0
LINE
  5
60
330
17
100
AcDbEntity
  8
DIMS
100
AcDbLine
 10
128.0
 20
80.0
 30
0.0
 11
128.0
 21
44.0
 31
0.0
  0
LINE
  5
61
330
17
100
AcDbEntity
  8
DIMS
100
AcDbLine
 10
40.0
 20
44.0
 30
0.0
 11
128.0
 21
44.0
 31
0.0
  0
LINE
  5
62
330
17
100
AcDbEntity
  8
DIMS
100
AcDbLine
 10
38.0
 20
42.0
 30
0.0
 11
42.0
 21
46.0
 31
0.0
  0
LINE
  5
63
330
17
100
AcDbEntity
  8
DIMS
100
AcDbLine
 10
126.0
 20
42.0
 30
0.0
 11
130.0
 21
46.0
 31
0.0
  0
TEXT
  5
64
330
17
100
AcDbEntity
  8
DIMS
100
AcDbText
 10
84.0
 20
46.2
 30
0.0
 40
3.0
  1
88 stand
 72
1
 11
84.0
 21
46.2
 31
0.0
100
AcDbText
  0
LINE
  5
65
330
17
100
AcDbEntity
  8
DIMS
100
AcDbLine
 10
128.0
 20
80.0
 30
0.0
 11
128.0
 21
44.0
 31
0.0
  0
LINE
  5
66
330
17
100
AcDbEntity
  8
DIMS
100
AcDbLine
 10
240.0
 20
80.0
 30
0.0
 11
240.0
 21
44.0
 31
0.0
  0
LINE
  5
67
330
17
100
AcDbEntity
  8
DIMS
100
AcDbLine
 10
128.0
 20
44.0
 30
0.0
 11
240.0
 21
44.0
 31
0.0
  0
LINE
  5
68
330
17
100
AcDbEntity
  8
DIMS
100
AcDbLine
 10
126.0
 20
42.0
 30
0.0
 11
130.0
 21
46.0
 31
0.0
  0
LINE
  5
69
330
17
100
AcDbEntity
  8
DIMS
100
AcDbLine
 10
238.0
 20
42.0
 30
0.0
 11
242.0
 21
46.0
 31
0.0
  0
TEXT
  5
6A
330
17
100
AcDbEntity
  8
DIMS
100
AcDbText
 10
184.0
 20
46.2
 30
0.0
 40
3.0
  1
112 organizer
 72
1
 11
184.0
 21
46.2
 31
0.0
100
AcDbText
  0
LINE
  5
6B
330
17
100
AcDbEntity
  8
DIMS
100
AcDbLine
 10
192.0
 20
158.0
 30
0.0
 11
192.0
 21
172.0
 31
0.0
  0
LINE
  5
6C
330
17
100
AcDbEntity
  8
DIMS
100
AcDbLine
 10
240.0
 20
158.0
 30
0.0
 11
240.0
 21
172.0
 31
0.0
  0
LINE
  5
6D
330
17
100
AcDbEntity
  8
DIMS
100
AcDbLine
 10
192.0
 20
172.0
 30
0.0
 11
240.0
 21
172.0
 31
0.0
  0
LINE
  5
6E
330
17
100
AcDbEntity
  8
DIMS
100
AcDbLine
 10
190.0
 20
170.0
 30
0.0
 11
194.0
 21
174.0
 31
0.0
  0
LINE
  5
6F
330
17
100
AcDbEntity
  8
DIMS
100
AcDbLine
 10
238.0
 20
170.0
 30
0.0
 11
242.0
 21
174.0
 31
0.0
  0
TEXT
  5
70
330
17
100
AcDbEntity
  8
DIMS
100
AcDbText
 10
216.0
 20
174.2
 30
0.0
 40
3.0
  1
48 pen bin
 72
1
 11
216.0
 21
174.2
 31
0.0
100
AcDbText
  0
LINE
  5
71
330
17
100
AcDbEntity
  8
DIMS
100
AcDbLine
 10
45.0
 20
174.0
 30
0.0
 11
45.0
 21
186.0
 31
0.0
  0
LINE
  5
72
330
17
100
AcDbEntity
  8
DIMS
100
AcDbLine
 10
123.0
 20
174.0
 30
0.0
 11
123.0
 21
186.0
 31
0.0
  0
LINE
  5
73
330
17
100
AcDbEntity
  8
DIMS
100
AcDbLine
 10
45.0
 20
186.0
 30
0.0
 11
123.0
 21
186.0
 31
0.0
  0
LINE
  5
74
330
17
100
AcDbEntity
  8
DIMS
100
AcDbLine
 10
43.0
 20
184.0
 30
0.0
 11
47.0
 21
188.0
 31
0.0
  0
LINE
  5
75
330
17
100
AcDbEntity
  8
DIMS
100
AcDbLine
 10
121.0
 20
184.0
 30
0.0
 11
125.0
 21
188.0
 31
0.0
  0
TEXT
  5
76
330
17
100
AcDbEntity
  8
DIMS
100
AcDbText
 10
84.0
 20
188.2
 30
0.0
 40
3.0
  1
78 phone
 72
1
 11
84.0
 21
188.2
 31
0.0
100
AcDbText
  0
LINE
  5
77
330
17
100
AcDbEntity
  8
DIMS
100
AcDbLine
 10
40.0
 20
80.0
 30
0.0
 11
24.0
 21
80.0
 31
0.0
  0
LINE
  5
78
330
17
100
AcDbEntity
  8
DIMS
100
AcDbLine
 10
40.0
 20
86.0
 30
0.0
 11
24.0
 21
86.0
 31
0.0
  0
LINE
  5
79
330
17
100
AcDbEntity
  8
DIMS
100
AcDbLine
 10
24.0
 20
80.0
 30
0.0
 11
24.0
 21
86.0
 31
0.0
  0
LINE
  5
7A
330
17
100
AcDbEntity
  8
DIMS
100
AcDbLine
 10
22.0
 20
78.0
 30
0.0
 11
26.0
 21
82.0
 31
0.0
  0
LINE
  5
7B
330
17
100
AcDbEntity
  8
DIMS
100
AcDbLine
 10
22.0
 20
84.0
 30
0.0
 11
26.0
 21
88.0
 31
0.0
  0
TEXT
  5
7C
330
17
100
AcDbEntity
  8
DIMS
100
AcDbText
 10
26.5
 20
81.8
 30
0.0
 40
3.0
  1
6
 11
26.5
 21
81.8
 31
0.0
100
AcDbText
  0
LINE
  5
7D
330
17
100
AcDbEntity
  8
DIMS
100
AcDbLine
 10
40.0
 20
86.0
 30
0.0
 11
24.0
 21
86.0
 31
0.0
  0
LINE
  5
7E
330
17
100
AcDbEntity
  8
DIMS
100
AcDbLine
 10
40.0
 20
94.0
 30
0.0
 11
24.0
 21
94.0
 31
0.0
  0
LINE
  5
7F
330
17
100
AcDbEntity
  8
DIMS
100
AcDbLine
 10
24.0
 20
86.0
 30
0.0
 11
24.0
 21
94.0
 31
0.0
  0
LINE
  5
80
330
17
100
AcDbEntity
  8
DIMS
100
AcDbLine
 10
22.0
 20
84.0
 30
0.0
 11
26.0
 21
88.0
 31
0.0
  0
LINE
  5
81
330
17
100
AcDbEntity
  8
DIMS
100
AcDbLine
 10
22.0
 20
92.0
 30
0.0
 11
26.0
 21
96.0
 31
0.0
  0
TEXT
  5
82
330
17
100
AcDbEntity
  8
DIMS
100
AcDbText
 10
26.5
 20
88.8
 30
0.0
 40
3.0
  1
8 lip
 11
26.5
 21
88.8
 31
0.0
100
AcDbText
  0
LINE
  5
83
330
17
100
AcDbEntity
  8
DIMS
100
AcDbLine
 10
40.0
 20
86.0
 30
0.0
 11
6.0
 21
86.0
 31
0.0
  0
LINE
  5
84
330
17
100
AcDbEntity
  8
DIMS
100
AcDbLine
 10
40.0
 20
176.630778703665
 30
0.0
 11
6.0
 21
176.630778703665
 31
0.0
  0
LINE
  5
85
330
17
100
AcDbEntity
  8
DIMS
100
AcDbLine
 10
6.0
 20
86.0
 30
0.0
 11
6.0
 21
176.630778703665
 31
0.0
  0
LINE
  5
86
330
17
100
AcDbEntity
  8
DIMS
100
AcDbLine
 10
4.0
 20
84.0
 30
0.0
 11
8.0
 21
88.0
 31
0.0
  0
LINE
  5
87
330
17
100
AcDbEntity
  8
DIMS
100
AcDbLine
 10
4.0
 20
174.630778703665
 30
0.0
 11
8.0
 21
178.630778703665
 31
0.0
  0
TEXT
  5
88
330
17
100
AcDbEntity
  8
DIMS
100
AcDbText
 10
8.5
 20
130.1153893518325
 30
0.0
 40
3.0
  1
91 stand H
 11
8.5
 21
130.1153893518325
 31
0.0
100
AcDbText
  0
LINE
  5
89
330
17
100
AcDbEntity
  8
DIMS
100
AcDbLine
 10
148.0
 20
86.0
 30
0.0
 11
164.0
 21
86.0
 31
0.0
  0
LINE
  5
8A
330
17
100
AcDbEntity
  8
DIMS
100
AcDbLine
 10
148.0
 20
114.0
 30
0.0
 11
164.0
 21
114.0
 31
0.0
  0
LINE
  5
8B
330
17
100
AcDbEntity
  8
DIMS
100
AcDbLine
 10
164.0
 20
86.0
 30
0.0
 11
164.0
 21
114.0
 31
0.0
  0
LINE
  5
8C
330
17
100
AcDbEntity
  8
DIMS
100
AcDbLine
 10
162.0
 20
84.0
 30
0.0
 11
166.0
 21
88.0
 31
0.0
  0
LINE
  5
8D
330
17
100
AcDbEntity
  8
DIMS
100
AcDbLine
 10
162.0
 20
112.0
 30
0.0
 11
166.0
 21
116.0
 31
0.0
  0
TEXT
  5
8E
330
17
100
AcDbEntity
  8
DIMS
100
AcDbText
 10
166.5
 20
98.8
 30
0.0
 40
3.0
  1
28 tier1
 11
166.5
 21
98.8
 31
0.0
100
AcDbText
  0
LINE
  5
8F
330
17
100
AcDbEntity
  8
DIMS
100
AcDbLine
 10
148.0
 20
86.0
 30
0.0
 11
182.0
 21
86.0
 31
0.0
  0
LINE
  5
90
330
17
100
AcDbEntity
  8
DIMS
100
AcDbLine
 10
148.0
 20
128.0
 30
0.0
 11
182.0
 21
128.0
 31
0.0
  0
LINE
  5
91
330
17
100
AcDbEntity
  8
DIMS
100
AcDbLine
 10
182.0
 20
86.0
 30
0.0
 11
182.0
 21
128.0
 31
0.0
  0
LINE
  5
92
330
17
100
AcDbEntity
  8
DIMS
100
AcDbLine
 10
180.0
 20
84.0
 30
0.0
 11
184.0
 21
88.0
 31
0.0
  0
LINE
  5
93
330
17
100
AcDbEntity
  8
DIMS
100
AcDbLine
 10
180.0
 20
126.0
 30
0.0
 11
184.0
 21
130.0
 31
0.0
  0
TEXT
  5
94
330
17
100
AcDbEntity
  8
DIMS
100
AcDbText
 10
184.5
 20
105.8
 30
0.0
 40
3.0
  1
42 tier2
 11
184.5
 21
105.8
 31
0.0
100
AcDbText
  0
LINE
  5
95
330
17
100
AcDbEntity
  8
DIMS
100
AcDbLine
 10
240.0
 20
86.0
 30
0.0
 11
258.0
 21
86.0
 31
0.0
  0
LINE
  5
96
330
17
100
AcDbEntity
  8
DIMS
100
AcDbLine
 10
240.0
 20
158.0
 30
0.0
 11
258.0
 21
158.0
 31
0.0
  0
LINE
  5
97
330
17
100
AcDbEntity
  8
DIMS
100
AcDbLine
 10
258.0
 20
86.0
 30
0.0
 11
258.0
 21
158.0
 31
0.0
  0
LINE
  5
98
330
17
100
AcDbEntity
  8
DIMS
100
AcDbLine
 10
256.0
 20
84.0
 30
0.0
 11
260.0
 21
88.0
 31
0.0
  0
LINE
  5
99
330
17
100
AcDbEntity
  8
DIMS
100
AcDbLine
 10
256.0
 20
156.0
 30
0.0
 11
260.0
 21
160.0
 31
0.0
  0
TEXT
  5
9A
330
17
100
AcDbEntity
  8
DIMS
100
AcDbText
 10
260.5
 20
120.8
 30
0.0
 40
3.0
  1
72 bin H
 11
260.5
 21
120.8
 31
0.0
100
AcDbText
  0
LINE
  5
9B
330
17
100
AcDbEntity
  8
ANNOTATIONS
100
AcDbLine
 10
84.0
 20
153.97308402774874
 30
0.0
 11
30.0
 21
201.630778703665
 31
0.0
  0
LINE
  5
9C
330
17
100
AcDbEntity
  8
ANNOTATIONS
100
AcDbLine
 10
84.0
 20
153.97308402774874
 30
0.0
 11
82.9177525402103
 21
156.22669012371554
 31
0.0
  0
LINE
  5
9D
330
17
100
AcDbEntity
  8
ANNOTATIONS
100
AcDbLine
 10
84.0
 20
153.97308402774874
 30
0.0
 11
81.6293528741605
 21
154.7668297078938
 31
0.0
  0
TEXT
  5
9E
330
17
100
AcDbEntity
  8
ANNOTATIONS
100
AcDbText
 10
26.0
 20
200.430778703665
 30
0.0
 40
2.8
  1
phone backrest
 72
2
 11
26.0
 21
200.430778703665
 31
0.0
100
AcDbText
  0
LINE
  5
9F
330
17
100
AcDbEntity
  8
ANNOTATIONS
100
AcDbLine
 10
216.0
 20
147.2
 30
0.0
 11
290.0
 21
163.0
 31
0.0
  0
LINE
  5
A0
330
17
100
AcDbEntity
  8
ANNOTATIONS
100
AcDbLine
 10
216.0
 20
147.2
 30
0.0
 11
218.45517800636898
 21
146.72872411790757
 31
0.0
  0
LINE
  5
A1
330
17
100
AcDbEntity
  8
ANNOTATIONS
100
AcDbLine
 10
216.0
 20
147.2
 30
0.0
 11
218.0486116141919
 21
148.63289582810404
 31
0.0
  0
TEXT
  5
A2
330
17
100
AcDbEntity
  8
ANNOTATIONS
100
AcDbText
 10
294.0
 20
161.8
 30
0.0
 40
2.8
  1
pen / marker bin
 11
294.0
 21
161.8
 31
0.0
100
AcDbText
  0
LINE
  5
A3
330
17
100
AcDbEntity
  8
ANNOTATIONS
100
AcDbLine
 10
167.2
 20
114.0
 30
0.0
 11
290.0
 21
104.0
 31
0.0
  0
LINE
  5
A4
330
17
100
AcDbEntity
  8
ANNOTATIONS
100
AcDbLine
 10
167.2
 20
114.0
 30
0.0
 11
169.41603796366448
 21
112.84277238902725
 31
0.0
  0
LINE
  5
A5
330
17
100
AcDbEntity
  8
ANNOTATIONS
100
AcDbLine
 10
167.2
 20
114.0
 30
0.0
 11
169.57407279274148
 21
114.7834400900928
 31
0.0
  0
TEXT
  5
A6
330
17
100
AcDbEntity
  8
ANNOTATIONS
100
AcDbText
 10
294.0
 20
102.8
 30
0.0
 40
2.8
  1
tiered card pockets
 11
294.0
 21
102.8
 31
0.0
100
AcDbText
  0
TEXT
  5
A7
330
17
100
AcDbEntity
  8
TITLE
100
AcDbText
 10
40.0
 20
-37.0
 30
0.0
 40
5.0
  1
TOP VIEW
 11
40.0
 21
-37.0
 31
0.0
100
AcDbText
  0
LWPOLYLINE
  5
A8
330
17
100
AcDbEntity
  8
OUTLINE
100
AcDbPolyline
 90
4
 70
1
 10
40.0
 20
-220.0
 10
240.0
 20
-220.0
 10
240.0
 20
-65.0
 10
40.0
 20
-65.0
  0
LWPOLYLINE
  5
A9
330
17
100
AcDbEntity
  8
OUTLINE
100
AcDbPolyline
 90
4
 70
1
 10
40.0
 20
-220.0
 10
128.0
 20
-220.0
 10
128.0
 20
-208.0
 10
40.0
 20
-208.0
  0
TEXT
  5
AA
330
17
100
AcDbEntity
  8
ANNOTATIONS
100
AcDbText
 10
44.0
 20
-217.0
 30
0.0
 40
2.5
  1
LIP
 11
44.0
 21
-217.0
 31
0.0
100
AcDbText
  0
LWPOLYLINE
  5
AB
330
17
100
AcDbEntity
  8
OUTLINE
100
AcDbPolyline
 90
4
 70
1
 10
40.0
 20
-208.0
 10
128.0
 20
-208.0
 10
128.0
 20
-165.73817382593006
 10
40.0
 20
-165.73817382593006
  0
LINE
  5
AC
330
17
100
AcDbEntity
  8
OUTLINE
100
AcDbLine
 10
128.0
 20
-220.0
 30
0.0
 11
128.0
 21
-65.0
 31
0.0
  0
LWPOLYLINE
  5
AD
330
17
100
AcDbEntity
  8
PHONE_REF
100
AcDbPolyline
 90
4
 70
1
 10
45.0
 20
-200.0
 10
123.0
 20
-200.0
 10
123.0
 20
-186.0
 10
45.0
 20
-186.0
  0
TEXT
  5
AE
330
17
100
AcDbEntity
  8
PHONE_REF
100
AcDbText
 10
49.0
 20
-198.0
 30
0.0
 40
2.4
  1
PHONE
 11
49.0
 21
-198.0
 31
0.0
100
AcDbText
  0
LWPOLYLINE
  5
AF
330
17
100
AcDbEntity
  8
OUTLINE
100
AcDbPolyline
 90
4
 70
1
 10
192.0
 20
-107.0
 10
240.0
 20
-107.0
 10
240.0
 20
-65.0
 10
192.0
 20
-65.0
  0
LWPOLYLINE
  5
B0
330
17
100
AcDbEntity
  8
HIDDEN
100
AcDbPolyline
 90
4
 70
1
 10
195.0
 20
-104.0
 10
237.0
 20
-104.0
 10
237.0
 20
-68.0
 10
195.0
 20
-68.0
  0
TEXT
  5
B1
330
17
100
AcDbEntity
  8
ANNOTATIONS
100
AcDbText
 10
196.0
 20
-88.0
 30
0.0
 40
2.6
  1
PEN BIN
 11
196.0
 21
-88.0
 31
0.0
100
AcDbText
  0
LWPOLYLINE
  5
B2
330
17
100
AcDbEntity
  8
OUTLINE
100
AcDbPolyline
 90
4
 70
1
 10
128.0
 20
-129.0
 10
192.0
 20
-129.0
 10
192.0
 20
-107.0
 10
128.0
 20
-107.0
  0
LWPOLYLINE
  5
B3
330
17
100
AcDbEntity
  8
HIDDEN
100
AcDbPolyline
 90
4
 70
1
 10
128.0
 20
-129.0
 10
240.0
 20
-129.0
 10
240.0
 20
-107.0
 10
128.0
 20
-107.0
  0
TEXT
  5
B4
330
17
100
AcDbEntity
  8
ANNOTATIONS
100
AcDbText
 10
132.0
 20
-123.0
 30
0.0
 40
2.4
  1
CARD TIER 2
 11
132.0
 21
-123.0
 31
0.0
100
AcDbText
  0
LWPOLYLINE
  5
B5
330
17
100
AcDbEntity
  8
OUTLINE
100
AcDbPolyline
 90
4
 70
1
 10
128.0
 20
-151.0
 10
240.0
 20
-151.0
 10
240.0
 20
-129.0
 10
128.0
 20
-129.0
  0
TEXT
  5
B6
330
17
100
AcDbEntity
  8
ANNOTATIONS
100
AcDbText
 10
132.0
 20
-145.0
 30
0.0
 40
2.4
  1
CARD TIER 1
 11
132.0
 21
-145.0
 31
0.0
100
AcDbText
  0
LWPOLYLINE
  5
B7
330
17
100
AcDbEntity
  8
OUTLINE
100
AcDbPolyline
 90
4
 70
1
 10
128.0
 20
-220.0
 10
240.0
 20
-220.0
 10
240.0
 20
-151.0
 10
128.0
 20
-151.0
  0
LWPOLYLINE
  5
B8
330
17
100
AcDbEntity
  8
HIDDEN
100
AcDbPolyline
 90
4
 70
1
 10
131.0
 20
-217.0
 10
237.0
 20
-217.0
 10
237.0
 20
-154.0
 10
131.0
 20
-154.0
  0
TEXT
  5
B9
330
17
100
AcDbEntity
  8
ANNOTATIONS
100
AcDbText
 10
136.0
 20
-187.5
 30
0.0
 40
2.6
  1
SHALLOW TRAY
 11
136.0
 21
-187.5
 31
0.0
100
AcDbText
  0
LINE
  5
BA
330
17
100
AcDbEntity
  8
DIMS
100
AcDbLine
 10
40.0
 20
-220.0
 30
0.0
 11
40.0
 21
-238.0
 31
0.0
  0
LINE
  5
BB
330
17
100
AcDbEntity
  8
DIMS
100
AcDbLine
 10
240.0
 20
-220.0
 30
0.0
 11
240.0
 21
-238.0
 31
0.0
  0
LINE
  5
BC
330
17
100
AcDbEntity
  8
DIMS
100
AcDbLine
 10
40.0
 20
-238.0
 30
0.0
 11
240.0
 21
-238.0
 31
0.0
  0
LINE
  5
BD
330
17
100
AcDbEntity
  8
DIMS
100
AcDbLine
 10
38.0
 20
-240.0
 30
0.0
 11
42.0
 21
-236.0
 31
0.0
  0
LINE
  5
BE
330
17
100
AcDbEntity
  8
DIMS
100
AcDbLine
 10
238.0
 20
-240.0
 30
0.0
 11
242.0
 21
-236.0
 31
0.0
  0
TEXT
  5
BF
330
17
100
AcDbEntity
  8
DIMS
100
AcDbText
 10
140.0
 20
-235.8
 30
0.0
 40
3.0
  1
200
 72
1
 11
140.0
 21
-235.8
 31
0.0
100
AcDbText
  0
LINE
  5
C0
330
17
100
AcDbEntity
  8
DIMS
100
AcDbLine
 10
40.0
 20
-220.0
 30
0.0
 11
40.0
 21
-256.0
 31
0.0
  0
LINE
  5
C1
330
17
100
AcDbEntity
  8
DIMS
100
AcDbLine
 10
128.0
 20
-220.0
 30
0.0
 11
128.0
 21
-256.0
 31
0.0
  0
LINE
  5
C2
330
17
100
AcDbEntity
  8
DIMS
100
AcDbLine
 10
40.0
 20
-256.0
 30
0.0
 11
128.0
 21
-256.0
 31
0.0
  0
LINE
  5
C3
330
17
100
AcDbEntity
  8
DIMS
100
AcDbLine
 10
38.0
 20
-258.0
 30
0.0
 11
42.0
 21
-254.0
 31
0.0
  0
LINE
  5
C4
330
17
100
AcDbEntity
  8
DIMS
100
AcDbLine
 10
126.0
 20
-258.0
 30
0.0
 11
130.0
 21
-254.0
 31
0.0
  0
TEXT
  5
C5
330
17
100
AcDbEntity
  8
DIMS
100
AcDbText
 10
84.0
 20
-253.8
 30
0.0
 40
3.0
  1
88
 72
1
 11
84.0
 21
-253.8
 31
0.0
100
AcDbText
  0
LINE
  5
C6
330
17
100
AcDbEntity
  8
DIMS
100
AcDbLine
 10
128.0
 20
-220.0
 30
0.0
 11
128.0
 21
-256.0
 31
0.0
  0
LINE
  5
C7
330
17
100
AcDbEntity
  8
DIMS
100
AcDbLine
 10
240.0
 20
-220.0
 30
0.0
 11
240.0
 21
-256.0
 31
0.0
  0
LINE
  5
C8
330
17
100
AcDbEntity
  8
DIMS
100
AcDbLine
 10
128.0
 20
-256.0
 30
0.0
 11
240.0
 21
-256.0
 31
0.0
  0
LINE
  5
C9
330
17
100
AcDbEntity
  8
DIMS
100
AcDbLine
 10
126.0
 20
-258.0
 30
0.0
 11
130.0
 21
-254.0
 31
0.0
  0
LINE
  5
CA
330
17
100
AcDbEntity
  8
DIMS
100
AcDbLine
 10
238.0
 20
-258.0
 30
0.0
 11
242.0
 21
-254.0
 31
0.0
  0
TEXT
  5
CB
330
17
100
AcDbEntity
  8
DIMS
100
AcDbText
 10
184.0
 20
-253.8
 30
0.0
 40
3.0
  1
112
 72
1
 11
184.0
 21
-253.8
 31
0.0
100
AcDbText
  0
LINE
  5
CC
330
17
100
AcDbEntity
  8
DIMS
100
AcDbLine
 10
192.0
 20
-65.0
 30
0.0
 11
192.0
 21
-51.0
 31
0.0
  0
LINE
  5
CD
330
17
100
AcDbEntity
  8
DIMS
100
AcDbLine
 10
240.0
 20
-65.0
 30
0.0
 11
240.0
 21
-51.0
 31
0.0
  0
LINE
  5
CE
330
17
100
AcDbEntity
  8
DIMS
100
AcDbLine
 10
192.0
 20
-51.0
 30
0.0
 11
240.0
 21
-51.0
 31
0.0
  0
LINE
  5
CF
330
17
100
AcDbEntity
  8
DIMS
100
AcDbLine
 10
190.0
 20
-53.0
 30
0.0
 11
194.0
 21
-49.0
 31
0.0
  0
LINE
  5
D0
330
17
100
AcDbEntity
  8
DIMS
100
AcDbLine
 10
238.0
 20
-53.0
 30
0.0
 11
242.0
 21
-49.0
 31
0.0
  0
TEXT
  5
D1
330
17
100
AcDbEntity
  8
DIMS
100
AcDbText
 10
216.0
 20
-48.8
 30
0.0
 40
3.0
  1
48
 72
1
 11
216.0
 21
-48.8
 31
0.0
100
AcDbText
  0
LINE
  5
D2
330
17
100
AcDbEntity
  8
DIMS
100
AcDbLine
 10
240.0
 20
-220.0
 30
0.0
 11
258.0
 21
-220.0
 31
0.0
  0
LINE
  5
D3
330
17
100
AcDbEntity
  8
DIMS
100
AcDbLine
 10
240.0
 20
-65.0
 30
0.0
 11
258.0
 21
-65.0
 31
0.0
  0
LINE
  5
D4
330
17
100
AcDbEntity
  8
DIMS
100
AcDbLine
 10
258.0
 20
-220.0
 30
0.0
 11
258.0
 21
-65.0
 31
0.0
  0
LINE
  5
D5
330
17
100
AcDbEntity
  8
DIMS
100
AcDbLine
 10
256.0
 20
-222.0
 30
0.0
 11
260.0
 21
-218.0
 31
0.0
  0
LINE
  5
D6
330
17
100
AcDbEntity
  8
DIMS
100
AcDbLine
 10
256.0
 20
-67.0
 30
0.0
 11
260.0
 21
-63.0
 31
0.0
  0
TEXT
  5
D7
330
17
100
AcDbEntity
  8
DIMS
100
AcDbText
 10
260.5
 20
-143.7
 30
0.0
 40
3.0
  1
155 OVERALL D
 11
260.5
 21
-143.7
 31
0.0
100
AcDbText
  0
LINE
  5
D8
330
17
100
AcDbEntity
  8
DIMS
100
AcDbLine
 10
40.0
 20
-220.0
 30
0.0
 11
24.0
 21
-220.0
 31
0.0
  0
LINE
  5
D9
330
17
100
AcDbEntity
  8
DIMS
100
AcDbLine
 10
40.0
 20
-208.0
 30
0.0
 11
24.0
 21
-208.0
 31
0.0
  0
LINE
  5
DA
330
17
100
AcDbEntity
  8
DIMS
100
AcDbLine
 10
24.0
 20
-220.0
 30
0.0
 11
24.0
 21
-208.0
 31
0.0
  0
LINE
  5
DB
330
17
100
AcDbEntity
  8
DIMS
100
AcDbLine
 10
22.0
 20
-222.0
 30
0.0
 11
26.0
 21
-218.0
 31
0.0
  0
LINE
  5
DC
330
17
100
AcDbEntity
  8
DIMS
100
AcDbLine
 10
22.0
 20
-210.0
 30
0.0
 11
26.0
 21
-206.0
 31
0.0
  0
TEXT
  5
DD
330
17
100
AcDbEntity
  8
DIMS
100
AcDbText
 10
26.5
 20
-215.2
 30
0.0
 40
3.0
  1
12 lip
 11
26.5
 21
-215.2
 31
0.0
100
AcDbText
  0
LINE
  5
DE
330
17
100
AcDbEntity
  8
DIMS
100
AcDbLine
 10
40.0
 20
-208.0
 30
0.0
 11
6.0
 21
-208.0
 31
0.0
  0
LINE
  5
DF
330
17
100
AcDbEntity
  8
DIMS
100
AcDbLine
 10
40.0
 20
-165.73817382593006
 30
0.0
 11
6.0
 21
-165.73817382593006
 31
0.0
  0
LINE
  5
E0
330
17
100
AcDbEntity
  8
DIMS
100
AcDbLine
 10
6.0
 20
-208.0
 30
0.0
 11
6.0
 21
-165.73817382593006
 31
0.0
  0
LINE
  5
E1
330
17
100
AcDbEntity
  8
DIMS
100
AcDbLine
 10
4.0
 20
-210.0
 30
0.0
 11
8.0
 21
-206.0
 31
0.0
  0
LINE
  5
E2
330
17
100
AcDbEntity
  8
DIMS
100
AcDbLine
 10
4.0
 20
-167.73817382593006
 30
0.0
 11
8.0
 21
-163.73817382593006
 31
0.0
  0
TEXT
  5
E3
330
17
100
AcDbEntity
  8
DIMS
100
AcDbText
 10
8.5
 20
-188.06908691296502
 30
0.0
 40
3.0
  1
42 rest proj.
 11
8.5
 21
-188.06908691296502
 31
0.0
100
AcDbText
  0
LINE
  5
E4
330
17
100
AcDbEntity
  8
DIMS
100
AcDbLine
 10
240.0
 20
-220.0
 30
0.0
 11
276.0
 21
-220.0
 31
0.0
  0
LINE
  5
E5
330
17
100
AcDbEntity
  8
DIMS
100
AcDbLine
 10
240.0
 20
-151.0
 30
0.0
 11
276.0
 21
-151.0
 31
0.0
  0
LINE
  5
E6
330
17
100
AcDbEntity
  8
DIMS
100
AcDbLine
 10
276.0
 20
-220.0
 30
0.0
 11
276.0
 21
-151.0
 31
0.0
  0
LINE
  5
E7
330
17
100
AcDbEntity
  8
DIMS
100
AcDbLine
 10
274.0
 20
-222.0
 30
0.0
 11
278.0
 21
-218.0
 31
0.0
  0
LINE
  5
E8
330
17
100
AcDbEntity
  8
DIMS
100
AcDbLine
 10
274.0
 20
-153.0
 30
0.0
 11
278.0
 21
-149.0
 31
0.0
  0
TEXT
  5
E9
330
17
100
AcDbEntity
  8
DIMS
100
AcDbText
 10
278.5
 20
-186.7
 30
0.0
 40
3.0
  1
69 tray D
 11
278.5
 21
-186.7
 31
0.0
100
AcDbText
  0
LINE
  5
EA
330
17
100
AcDbEntity
  8
DIMS
100
AcDbLine
 10
240.0
 20
-151.0
 30
0.0
 11
294.0
 21
-151.0
 31
0.0
  0
LINE
  5
EB
330
17
100
AcDbEntity
  8
DIMS
100
AcDbLine
 10
240.0
 20
-129.0
 30
0.0
 11
294.0
 21
-129.0
 31
0.0
  0
LINE
  5
EC
330
17
100
AcDbEntity
  8
DIMS
100
AcDbLine
 10
294.0
 20
-151.0
 30
0.0
 11
294.0
 21
-129.0
 31
0.0
  0
LINE
  5
ED
330
17
100
AcDbEntity
  8
DIMS
100
AcDbLine
 10
292.0
 20
-153.0
 30
0.0
 11
296.0
 21
-149.0
 31
0.0
  0
LINE
  5
EE
330
17
100
AcDbEntity
  8
DIMS
100
AcDbLine
 10
292.0
 20
-131.0
 30
0.0
 11
296.0
 21
-127.0
 31
0.0
  0
TEXT
  5
EF
330
17
100
AcDbEntity
  8
DIMS
100
AcDbText
 10
296.5
 20
-141.2
 30
0.0
 40
3.0
  1
22 tier
 11
296.5
 21
-141.2
 31
0.0
100
AcDbText
  0
LINE
  5
F0
330
17
100
AcDbEntity
  8
DIMS
100
AcDbLine
 10
240.0
 20
-107.0
 30
0.0
 11
312.0
 21
-107.0
 31
0.0
  0
LINE
  5
F1
330
17
100
AcDbEntity
  8
DIMS
100
AcDbLine
 10
240.0
 20
-65.0
 30
0.0
 11
312.0
 21
-65.0
 31
0.0
  0
LINE
  5
F2
330
17
100
AcDbEntity
  8
DIMS
100
AcDbLine
 10
312.0
 20
-107.0
 30
0.0
 11
312.0
 21
-65.0
 31
0.0
  0
LINE
  5
F3
330
17
100
AcDbEntity
  8
DIMS
100
AcDbLine
 10
310.0
 20
-109.0
 30
0.0
 11
314.0
 21
-105.0
 31
0.0
  0
LINE
  5
F4
330
17
100
AcDbEntity
  8
DIMS
100
AcDbLine
 10
310.0
 20
-67.0
 30
0.0
 11
314.0
 21
-63.0
 31
0.0
  0
TEXT
  5
F5
330
17
100
AcDbEntity
  8
DIMS
100
AcDbText
 10
314.5
 20
-87.2
 30
0.0
 40
3.0
  1
42 bin D
 11
314.5
 21
-87.2
 31
0.0
100
AcDbText
  0
LINE
  5
F6
330
17
100
AcDbEntity
  8
ANNOTATIONS
100
AcDbLine
 10
84.0
 20
-200.0
 30
0.0
 11
15.0
 21
-55.0
 31
0.0
  0
LINE
  5
F7
330
17
100
AcDbEntity
  8
ANNOTATIONS
100
AcDbLine
 10
84.0
 20
-200.0
 30
0.0
 11
83.8896571769386
 21
-197.50243629482674
 31
0.0
  0
LINE
  5
F8
330
17
100
AcDbEntity
  8
ANNOTATIONS
100
AcDbLine
 10
84.0
 20
-200.0
 30
0.0
 11
82.13148087852919
 21
-198.33908570579396
 31
0.0
  0
TEXT
  5
F9
330
17
100
AcDbEntity
  8
ANNOTATIONS
100
AcDbText
 10
11.0
 20
-56.2
 30
0.0
 40
2.8
  1
phone seat on incline
 72
2
 11
11.0
 21
-56.2
 31
0.0
100
AcDbText
  0
LINE
  5
FA
330
17
100
AcDbEntity
  8
ANNOTATIONS
100
AcDbLine
 10
184.0
 20
-185.5
 30
0.0
 11
330.0
 21
-200.0
 31
0.0
  0
LINE
  5
FB
330
17
100
AcDbEntity
  8
ANNOTATIONS
100
AcDbLine
 10
184.0
 20
-185.5
 30
0.0
 11
186.1951652887295
 21
-186.69634834189594
 31
0.0
  0
LINE
  5
FC
330
17
100
AcDbEntity
  8
ANNOTATIONS
100
AcDbLine
 10
184.0
 20
-185.5
 30
0.0
 11
186.38759415468044
 21
-184.75878872611395
 31
0.0
  0
TEXT
  5
FD
330
17
100
AcDbEntity
  8
ANNOTATIONS
100
AcDbText
 10
334.0
 20
-201.2
 30
0.0
 40
2.8
  1
tray recess 12 deep
 11
334.0
 21
-201.2
 31
0.0
100
AcDbText
  0
TEXT
  5
FE
330
17
100
AcDbEntity
  8
TITLE
100
AcDbText
 10
420.0
 20
206.630778703665
 30
0.0
 40
5.0
  1
LEFT SIDE VIEW
 11
420.0
 21
206.630778703665
 31
0.0
100
AcDbText
  0
LWPOLYLINE
  5
FF
330
17
100
AcDbEntity
  8
OUTLINE
100
AcDbPolyline
 90
4
 70
1
 10
420.0
 20
80.0
 10
575.0
 20
80.0
 10
575.0
 20
86.0
 10
420.0
 20
86.0
  0
LWPOLYLINE
  5
100
330
17
100
AcDbEntity
  8
OUTLINE
100
AcDbPolyline
 90
4
 70
1
 10
563.0
 20
86.0
 10
575.0
 20
86.0
 10
575.0
 20
94.0
 10
563.0
 20
94.0
  0
LWPOLYLINE
  5
101
330
17
100
AcDbEntity
  8
OUTLINE
100
AcDbPolyline
 90
4
 70
1
 10
563.0
 20
94.0
 10
520.7381738259301
 20
176.630778703665
 10
524.3634049740766
 20
174.94030565670218
 10
566.6252311481466
 20
92.3095269530372
  0
LWPOLYLINE
  5
102
330
17
100
AcDbEntity
  8
HIDDEN
100
AcDbPolyline
 90
4
 70
1
 10
563.0
 20
86.0
 10
563.0
 20
94.0
 10
520.7381738259301
 20
176.630778703665
 10
520.7381738259301
 20
86.0
  0
ARC
  5
103
330
17
100
AcDbEntity
  8
ANNOTATIONS
100
AcDbCircle
 10
563.0
 20
86.0
 30
0.0
 40
30.0
100
AcDbArc
 50
115.0
 51
180.0
  0
TEXT
  5
104
330
17
100
AcDbEntity
  8
ANNOTATIONS
100
AcDbText
 10
525.0
 20
94.0
 30
0.0
 40
3.2
  1
65°
 11
525.0
 21
94.0
 31
0.0
100
AcDbText
  0
LWPOLYLINE
  5
105
330
17
100
AcDbEntity
  8
HIDDEN
100
AcDbPolyline
 90
4
 70
1
 10
420.0
 20
86.0
 10
462.0
 20
86.0
 10
462.0
 20
158.0
 10
420.0
 20
158.0
  0
LWPOLYLINE
  5
106
330
17
100
AcDbEntity
  8
HIDDEN
100
AcDbPolyline
 90
4
 70
1
 10
462.0
 20
86.0
 10
484.0
 20
86.0
 10
484.0
 20
128.0
 10
462.0
 20
128.0
  0
LWPOLYLINE
  5
107
330
17
100
AcDbEntity
  8
HIDDEN
100
AcDbPolyline
 90
4
 70
1
 10
484.0
 20
86.0
 10
506.0
 20
86.0
 10
506.0
 20
114.0
 10
484.0
 20
114.0
  0
LINE
  5
108
330
17
100
AcDbEntity
  8
DIMS
100
AcDbLine
 10
420.0
 20
80.0
 30
0.0
 11
420.0
 21
62.0
 31
0.0
  0
LINE
  5
109
330
17
100
AcDbEntity
  8
DIMS
100
AcDbLine
 10
575.0
 20
80.0
 30
0.0
 11
575.0
 21
62.0
 31
0.0
  0
LINE
  5
10A
330
17
100
AcDbEntity
  8
DIMS
100
AcDbLine
 10
420.0
 20
62.0
 30
0.0
 11
575.0
 21
62.0
 31
0.0
  0
LINE
  5
10B
330
17
100
AcDbEntity
  8
DIMS
100
AcDbLine
 10
418.0
 20
60.0
 30
0.0
 11
422.0
 21
64.0
 31
0.0
  0
LINE
  5
10C
330
17
100
AcDbEntity
  8
DIMS
100
AcDbLine
 10
573.0
 20
60.0
 30
0.0
 11
577.0
 21
64.0
 31
0.0
  0
TEXT
  5
10D
330
17
100
AcDbEntity
  8
DIMS
100
AcDbText
 10
497.5
 20
64.2
 30
0.0
 40
3.0
  1
155
 72
1
 11
497.5
 21
64.2
 31
0.0
100
AcDbText
  0
LINE
  5
10E
330
17
100
AcDbEntity
  8
DIMS
100
AcDbLine
 10
563.0
 20
80.0
 30
0.0
 11
563.0
 21
44.0
 31
0.0
  0
LINE
  5
10F
330
17
100
AcDbEntity
  8
DIMS
100
AcDbLine
 10
575.0
 20
80.0
 30
0.0
 11
575.0
 21
44.0
 31
0.0
  0
LINE
  5
110
330
17
100
AcDbEntity
  8
DIMS
100
AcDbLine
 10
563.0
 20
44.0
 30
0.0
 11
575.0
 21
44.0
 31
0.0
  0
LINE
  5
111
330
17
100
AcDbEntity
  8
DIMS
100
AcDbLine
 10
561.0
 20
42.0
 30
0.0
 11
565.0
 21
46.0
 31
0.0
  0
LINE
  5
112
330
17
100
AcDbEntity
  8
DIMS
100
AcDbLine
 10
573.0
 20
42.0
 30
0.0
 11
577.0
 21
46.0
 31
0.0
  0
TEXT
  5
113
330
17
100
AcDbEntity
  8
DIMS
100
AcDbText
 10
569.0
 20
46.2
 30
0.0
 40
3.0
  1
12
 72
1
 11
569.0
 21
46.2
 31
0.0
100
AcDbText
  0
LINE
  5
114
330
17
100
AcDbEntity
  8
DIMS
100
AcDbLine
 10
520.7381738259301
 20
176.630778703665
 30
0.0
 11
520.7381738259301
 21
190.630778703665
 31
0.0
  0
LINE
  5
115
330
17
100
AcDbEntity
  8
DIMS
100
AcDbLine
 10
563.0
 20
176.630778703665
 30
0.0
 11
563.0
 21
190.630778703665
 31
0.0
  0
LINE
  5
116
330
17
100
AcDbEntity
  8
DIMS
100
AcDbLine
 10
520.7381738259301
 20
190.630778703665
 30
0.0
 11
563.0
 21
190.630778703665
 31
0.0
  0
LINE
  5
117
330
17
100
AcDbEntity
  8
DIMS
100
AcDbLine
 10
518.7381738259301
 20
188.630778703665
 30
0.0
 11
522.7381738259301
 21
192.630778703665
 31
0.0
  0
LINE
  5
118
330
17
100
AcDbEntity
  8
DIMS
100
AcDbLine
 10
561.0
 20
188.630778703665
 30
0.0
 11
565.0
 21
192.630778703665
 31
0.0
  0
TEXT
  5
119
330
17
100
AcDbEntity
  8
DIMS
100
AcDbText
 10
541.869086912965
 20
192.83077870366498
 30
0.0
 40
3.0
  1
42 horiz. proj.
 72
1
 11
541.869086912965
 21
192.83077870366498
 31
0.0
100
AcDbText
  0
LINE
  5
11A
330
17
100
AcDbEntity
  8
DIMS
100
AcDbLine
 10
420.0
 20
80.0
 30
0.0
 11
404.0
 21
80.0
 31
0.0
  0
LINE
  5
11B
330
17
100
AcDbEntity
  8
DIMS
100
AcDbLine
 10
420.0
 20
86.0
 30
0.0
 11
404.0
 21
86.0
 31
0.0
  0
LINE
  5
11C
330
17
100
AcDbEntity
  8
DIMS
100
AcDbLine
 10
404.0
 20
80.0
 30
0.0
 11
404.0
 21
86.0
 31
0.0
  0
LINE
  5
11D
330
17
100
AcDbEntity
  8
DIMS
100
AcDbLine
 10
402.0
 20
78.0
 30
0.0
 11
406.0
 21
82.0
 31
0.0
  0
LINE
  5
11E
330
17
100
AcDbEntity
  8
DIMS
100
AcDbLine
 10
402.0
 20
84.0
 30
0.0
 11
406.0
 21
88.0
 31
0.0
  0
TEXT
  5
11F
330
17
100
AcDbEntity
  8
DIMS
100
AcDbText
 10
406.5
 20
81.8
 30
0.0
 40
3.0
  1
6
 11
406.5
 21
81.8
 31
0.0
100
AcDbText
  0
LINE
  5
120
330
17
100
AcDbEntity
  8
DIMS
100
AcDbLine
 10
575.0
 20
86.0
 30
0.0
 11
591.0
 21
86.0
 31
0.0
  0
LINE
  5
121
330
17
100
AcDbEntity
  8
DIMS
100
AcDbLine
 10
575.0
 20
94.0
 30
0.0
 11
591.0
 21
94.0
 31
0.0
  0
LINE
  5
122
330
17
100
AcDbEntity
  8
DIMS
100
AcDbLine
 10
591.0
 20
86.0
 30
0.0
 11
591.0
 21
94.0
 31
0.0
  0
LINE
  5
123
330
17
100
AcDbEntity
  8
DIMS
100
AcDbLine
 10
589.0
 20
84.0
 30
0.0
 11
593.0
 21
88.0
 31
0.0
  0
LINE
  5
124
330
17
100
AcDbEntity
  8
DIMS
100
AcDbLine
 10
589.0
 20
92.0
 30
0.0
 11
593.0
 21
96.0
 31
0.0
  0
TEXT
  5
125
330
17
100
AcDbEntity
  8
DIMS
100
AcDbText
 10
593.5
 20
88.8
 30
0.0
 40
3.0
  1
8
 11
593.5
 21
88.8
 31
0.0
100
AcDbText
  0
LINE
  5
126
330
17
100
AcDbEntity
  8
DIMS
100
AcDbLine
 10
420.0
 20
80.0
 30
0.0
 11
386.0
 21
80.0
 31
0.0
  0
LINE
  5
127
330
17
100
AcDbEntity
  8
DIMS
100
AcDbLine
 10
420.0
 20
176.630778703665
 30
0.0
 11
386.0
 21
176.630778703665
 31
0.0
  0
LINE
  5
128
330
17
100
AcDbEntity
  8
DIMS
100
AcDbLine
 10
386.0
 20
80.0
 30
0.0
 11
386.0
 21
176.630778703665
 31
0.0
  0
LINE
  5
129
330
17
100
AcDbEntity
  8
DIMS
100
AcDbLine
 10
384.0
 20
78.0
 30
0.0
 11
388.0
 21
82.0
 31
0.0
  0
LINE
  5
12A
330
17
100
AcDbEntity
  8
DIMS
100
AcDbLine
 10
384.0
 20
174.630778703665
 30
0.0
 11
388.0
 21
178.630778703665
 31
0.0
  0
TEXT
  5
12B
330
17
100
AcDbEntity
  8
DIMS
100
AcDbText
 10
388.5
 20
127.11538935183249
 30
0.0
 40
3.0
  1
97 stand H
 11
388.5
 21
127.11538935183249
 31
0.0
100
AcDbText
  0
LINE
  5
12C
330
17
100
AcDbEntity
  8
ANNOTATIONS
100
AcDbLine
 10
543.869086912965
 20
135.3153893518325
 30
0.0
 11
620.0
 21
181.630778703665
 31
0.0
  0
LINE
  5
12D
330
17
100
AcDbEntity
  8
ANNOTATIONS
100
AcDbLine
 10
543.869086912965
 20
135.3153893518325
 30
0.0
 11
546.3422896724712
 21
135.68044840235865
 31
0.0
  0
LINE
  5
12E
330
17
100
AcDbEntity
  8
ANNOTATIONS
100
AcDbLine
 10
543.869086912965
 20
135.3153893518325
 30
0.0
 11
545.330306535656
 21
137.34389550520322
 31
0.0
  0
TEXT
  5
12F
330
17
100
AcDbEntity
  8
ANNOTATIONS
100
AcDbText
 10
624.0
 20
180.430778703665
 30
0.0
 40
2.8
  1
backrest 100 lg × 4 thk
 11
624.0
 21
180.430778703665
 31
0.0
100
AcDbText
  0
LINE
  5
130
330
17
100
AcDbEntity
  8
ANNOTATIONS
100
AcDbLine
 10
441.0
 20
158.0
 30
0.0
 11
400.0
 21
178.0
 31
0.0
  0
LINE
  5
131
330
17
100
AcDbEntity
  8
ANNOTATIONS
100
AcDbLine
 10
441.0
 20
158.0
 30
0.0
 11
439.3572741152188
 21
159.88452956131493
 31
0.0
  0
LINE
  5
132
330
17
100
AcDbEntity
  8
ANNOTATIONS
100
AcDbLine
 10
441.0
 20
158.0
 30
0.0
 11
438.5036230951652
 21
158.13454497020507
 31
0.0
  0
TEXT
  5
133
330
17
100
AcDbEntity
  8
ANNOTATIONS
100
AcDbText
 10
396.0
 20
176.8
 30
0.0
 40
2.8
  1
pen bin (hidden)
 72
2
 11
396.0
 21
176.8
 31
0.0
100
AcDbText
  0
TEXT
  5
134
330
17
100
AcDbEntity
  8
TITLE
100
AcDbText
 10
700.0
 20
188.0
 30
0.0
 40
5.0
  1
RIGHT SIDE VIEW
 11
700.0
 21
188.0
 31
0.0
100
AcDbText
  0
LWPOLYLINE
  5
135
330
17
100
AcDbEntity
  8
OUTLINE
100
AcDbPolyline
 90
4
 70
1
 10
700.0
 20
80.0
 10
855.0
 20
80.0
 10
855.0
 20
86.0
 10
700.0
 20
86.0
  0
LWPOLYLINE
  5
136
330
17
100
AcDbEntity
  8
OUTLINE
100
AcDbPolyline
 90
4
 70
1
 10
700.0
 20
86.0
 10
742.0
 20
86.0
 10
742.0
 20
158.0
 10
700.0
 20
158.0
  0
LWPOLYLINE
  5
137
330
17
100
AcDbEntity
  8
HIDDEN
100
AcDbPolyline
 90
4
 70
1
 10
703.0
 20
89.0
 10
739.0
 20
89.0
 10
739.0
 20
158.0
 10
703.0
 20
158.0
  0
LWPOLYLINE
  5
138
330
17
100
AcDbEntity
  8
OUTLINE
100
AcDbPolyline
 90
4
 70
1
 10
742.0
 20
86.0
 10
764.0
 20
86.0
 10
764.0
 20
128.0
 10
742.0
 20
128.0
  0
LWPOLYLINE
  5
139
330
17
100
AcDbEntity
  8
OUTLINE
100
AcDbPolyline
 90
4
 70
1
 10
764.0
 20
86.0
 10
786.0
 20
86.0
 10
786.0
 20
114.0
 10
764.0
 20
114.0
  0
LWPOLYLINE
  5
13A
330
17
100
AcDbEntity
  8
OUTLINE
100
AcDbPolyline
 90
4
 70
1
 10
786.0
 20
86.0
 10
855.0
 20
86.0
 10
855.0
 20
90.0
 10
786.0
 20
90.0
  0
LWPOLYLINE
  5
13B
330
17
100
AcDbEntity
  8
HIDDEN
100
AcDbPolyline
 90
4
 70
1
 10
789.0
 20
74.0
 10
852.0
 20
74.0
 10
852.0
 20
86.0
 10
789.0
 20
86.0
  0
TEXT
  5
13C
330
17
100
AcDbEntity
  8
ANNOTATIONS
100
AcDbText
 10
792.0
 20
92.0
 30
0.0
 40
2.5
  1
TRAY
 11
792.0
 21
92.0
 31
0.0
100
AcDbText
  0
TEXT
  5
13D
330
17
100
AcDbEntity
  8
ANNOTATIONS
100
AcDbText
 10
766.0
 20
117.0
 30
0.0
 40
2.4
  1
TIER1
 11
766.0
 21
117.0
 31
0.0
100
AcDbText
  0
TEXT
  5
13E
330
17
100
AcDbEntity
  8
ANNOTATIONS
100
AcDbText
 10
744.0
 20
131.0
 30
0.0
 40
2.4
  1
TIER2
 11
744.0
 21
131.0
 31
0.0
100
AcDbText
  0
TEXT
  5
13F
330
17
100
AcDbEntity
  8
ANNOTATIONS
100
AcDbText
 10
708.0
 20
162.0
 30
0.0
 40
2.6
  1
BIN
 11
708.0
 21
162.0
 31
0.0
100
AcDbText
  0
LINE
  5
140
330
17
100
AcDbEntity
  8
HIDDEN
100
AcDbLine
 10
843.0
 20
94.0
 30
0.0
 11
800.7381738259301
 21
176.630778703665
 31
0.0
  0
LWPOLYLINE
  5
141
330
17
100
AcDbEntity
  8
HIDDEN
100
AcDbPolyline
 90
4
 70
1
 10
843.0
 20
86.0
 10
855.0
 20
86.0
 10
855.0
 20
94.0
 10
843.0
 20
94.0
  0
LINE
  5
142
330
17
100
AcDbEntity
  8
DIMS
100
AcDbLine
 10
700.0
 20
80.0
 30
0.0
 11
700.0
 21
62.0
 31
0.0
  0
LINE
  5
143
330
17
100
AcDbEntity
  8
DIMS
100
AcDbLine
 10
855.0
 20
80.0
 30
0.0
 11
855.0
 21
62.0
 31
0.0
  0
LINE
  5
144
330
17
100
AcDbEntity
  8
DIMS
100
AcDbLine
 10
700.0
 20
62.0
 30
0.0
 11
855.0
 21
62.0
 31
0.0
  0
LINE
  5
145
330
17
100
AcDbEntity
  8
DIMS
100
AcDbLine
 10
698.0
 20
60.0
 30
0.0
 11
702.0
 21
64.0
 31
0.0
  0
LINE
  5
146
330
17
100
AcDbEntity
  8
DIMS
100
AcDbLine
 10
853.0
 20
60.0
 30
0.0
 11
857.0
 21
64.0
 31
0.0
  0
TEXT
  5
147
330
17
100
AcDbEntity
  8
DIMS
100
AcDbText
 10
777.5
 20
64.2
 30
0.0
 40
3.0
  1
155
 72
1
 11
777.5
 21
64.2
 31
0.0
100
AcDbText
  0
LINE
  5
148
330
17
100
AcDbEntity
  8
DIMS
100
AcDbLine
 10
700.0
 20
80.0
 30
0.0
 11
700.0
 21
44.0
 31
0.0
  0
LINE
  5
149
330
17
100
AcDbEntity
  8
DIMS
100
AcDbLine
 10
742.0
 20
80.0
 30
0.0
 11
742.0
 21
44.0
 31
0.0
  0
LINE
  5
14A
330
17
100
AcDbEntity
  8
DIMS
100
AcDbLine
 10
700.0
 20
44.0
 30
0.0
 11
742.0
 21
44.0
 31
0.0
  0
LINE
  5
14B
330
17
100
AcDbEntity
  8
DIMS
100
AcDbLine
 10
698.0
 20
42.0
 30
0.0
 11
702.0
 21
46.0
 31
0.0
  0
LINE
  5
14C
330
17
100
AcDbEntity
  8
DIMS
100
AcDbLine
 10
740.0
 20
42.0
 30
0.0
 11
744.0
 21
46.0
 31
0.0
  0
TEXT
  5
14D
330
17
100
AcDbEntity
  8
DIMS
100
AcDbText
 10
721.0
 20
46.2
 30
0.0
 40
3.0
  1
42
 72
1
 11
721.0
 21
46.2
 31
0.0
100
AcDbText
  0
LINE
  5
14E
330
17
100
AcDbEntity
  8
DIMS
100
AcDbLine
 10
742.0
 20
80.0
 30
0.0
 11
742.0
 21
44.0
 31
0.0
  0
LINE
  5
14F
330
17
100
AcDbEntity
  8
DIMS
100
AcDbLine
 10
764.0
 20
80.0
 30
0.0
 11
764.0
 21
44.0
 31
0.0
  0
LINE
  5
150
330
17
100
AcDbEntity
  8
DIMS
100
AcDbLine
 10
742.0
 20
44.0
 30
0.0
 11
764.0
 21
44.0
 31
0.0
  0
LINE
  5
151
330
17
100
AcDbEntity
  8
DIMS
100
AcDbLine
 10
740.0
 20
42.0
 30
0.0
 11
744.0
 21
46.0
 31
0.0
  0
LINE
  5
152
330
17
100
AcDbEntity
  8
DIMS
100
AcDbLine
 10
762.0
 20
42.0
 30
0.0
 11
766.0
 21
46.0
 31
0.0
  0
TEXT
  5
153
330
17
100
AcDbEntity
  8
DIMS
100
AcDbText
 10
753.0
 20
46.2
 30
0.0
 40
3.0
  1
22
 72
1
 11
753.0
 21
46.2
 31
0.0
100
AcDbText
  0
LINE
  5
154
330
17
100
AcDbEntity
  8
DIMS
100
AcDbLine
 10
764.0
 20
80.0
 30
0.0
 11
764.0
 21
26.0
 31
0.0
  0
LINE
  5
155
330
17
100
AcDbEntity
  8
DIMS
100
AcDbLine
 10
786.0
 20
80.0
 30
0.0
 11
786.0
 21
26.0
 31
0.0
  0
LINE
  5
156
330
17
100
AcDbEntity
  8
DIMS
100
AcDbLine
 10
764.0
 20
26.0
 30
0.0
 11
786.0
 21
26.0
 31
0.0
  0
LINE
  5
157
330
17
100
AcDbEntity
  8
DIMS
100
AcDbLine
 10
762.0
 20
24.0
 30
0.0
 11
766.0
 21
28.0
 31
0.0
  0
LINE
  5
158
330
17
100
AcDbEntity
  8
DIMS
100
AcDbLine
 10
784.0
 20
24.0
 30
0.0
 11
788.0
 21
28.0
 31
0.0
  0
TEXT
  5
159
330
17
100
AcDbEntity
  8
DIMS
100
AcDbText
 10
775.0
 20
28.2
 30
0.0
 40
3.0
  1
22
 72
1
 11
775.0
 21
28.2
 31
0.0
100
AcDbText
  0
LINE
  5
15A
330
17
100
AcDbEntity
  8
DIMS
100
AcDbLine
 10
786.0
 20
80.0
 30
0.0
 11
786.0
 21
44.0
 31
0.0
  0
LINE
  5
15B
330
17
100
AcDbEntity
  8
DIMS
100
AcDbLine
 10
855.0
 20
80.0
 30
0.0
 11
855.0
 21
44.0
 31
0.0
  0
LINE
  5
15C
330
17
100
AcDbEntity
  8
DIMS
100
AcDbLine
 10
786.0
 20
44.0
 30
0.0
 11
855.0
 21
44.0
 31
0.0
  0
LINE
  5
15D
330
17
100
AcDbEntity
  8
DIMS
100
AcDbLine
 10
784.0
 20
42.0
 30
0.0
 11
788.0
 21
46.0
 31
0.0
  0
LINE
  5
15E
330
17
100
AcDbEntity
  8
DIMS
100
AcDbLine
 10
853.0
 20
42.0
 30
0.0
 11
857.0
 21
46.0
 31
0.0
  0
TEXT
  5
15F
330
17
100
AcDbEntity
  8
DIMS
100
AcDbText
 10
820.5
 20
46.2
 30
0.0
 40
3.0
  1
69 tray
 72
1
 11
820.5
 21
46.2
 31
0.0
100
AcDbText
  0
LINE
  5
160
330
17
100
AcDbEntity
  8
DIMS
100
AcDbLine
 10
700.0
 20
80.0
 30
0.0
 11
684.0
 21
80.0
 31
0.0
  0
LINE
  5
161
330
17
100
AcDbEntity
  8
DIMS
100
AcDbLine
 10
700.0
 20
86.0
 30
0.0
 11
684.0
 21
86.0
 31
0.0
  0
LINE
  5
162
330
17
100
AcDbEntity
  8
DIMS
100
AcDbLine
 10
684.0
 20
80.0
 30
0.0
 11
684.0
 21
86.0
 31
0.0
  0
LINE
  5
163
330
17
100
AcDbEntity
  8
DIMS
100
AcDbLine
 10
682.0
 20
78.0
 30
0.0
 11
686.0
 21
82.0
 31
0.0
  0
LINE
  5
164
330
17
100
AcDbEntity
  8
DIMS
100
AcDbLine
 10
682.0
 20
84.0
 30
0.0
 11
686.0
 21
88.0
 31
0.0
  0
TEXT
  5
165
330
17
100
AcDbEntity
  8
DIMS
100
AcDbText
 10
686.5
 20
81.8
 30
0.0
 40
3.0
  1
6
 11
686.5
 21
81.8
 31
0.0
100
AcDbText
  0
LINE
  5
166
330
17
100
AcDbEntity
  8
DIMS
100
AcDbLine
 10
855.0
 20
86.0
 30
0.0
 11
871.0
 21
86.0
 31
0.0
  0
LINE
  5
167
330
17
100
AcDbEntity
  8
DIMS
100
AcDbLine
 10
855.0
 20
114.0
 30
0.0
 11
871.0
 21
114.0
 31
0.0
  0
LINE
  5
168
330
17
100
AcDbEntity
  8
DIMS
100
AcDbLine
 10
871.0
 20
86.0
 30
0.0
 11
871.0
 21
114.0
 31
0.0
  0
LINE
  5
169
330
17
100
AcDbEntity
  8
DIMS
100
AcDbLine
 10
869.0
 20
84.0
 30
0.0
 11
873.0
 21
88.0
 31
0.0
  0
LINE
  5
16A
330
17
100
AcDbEntity
  8
DIMS
100
AcDbLine
 10
869.0
 20
112.0
 30
0.0
 11
873.0
 21
116.0
 31
0.0
  0
TEXT
  5
16B
330
17
100
AcDbEntity
  8
DIMS
100
AcDbText
 10
873.5
 20
98.8
 30
0.0
 40
3.0
  1
28
 11
873.5
 21
98.8
 31
0.0
100
AcDbText
  0
LINE
  5
16C
330
17
100
AcDbEntity
  8
DIMS
100
AcDbLine
 10
855.0
 20
86.0
 30
0.0
 11
889.0
 21
86.0
 31
0.0
  0
LINE
  5
16D
330
17
100
AcDbEntity
  8
DIMS
100
AcDbLine
 10
855.0
 20
128.0
 30
0.0
 11
889.0
 21
128.0
 31
0.0
  0
LINE
  5
16E
330
17
100
AcDbEntity
  8
DIMS
100
AcDbLine
 10
889.0
 20
86.0
 30
0.0
 11
889.0
 21
128.0
 31
0.0
  0
LINE
  5
16F
330
17
100
AcDbEntity
  8
DIMS
100
AcDbLine
 10
887.0
 20
84.0
 30
0.0
 11
891.0
 21
88.0
 31
0.0
  0
LINE
  5
170
330
17
100
AcDbEntity
  8
DIMS
100
AcDbLine
 10
887.0
 20
126.0
 30
0.0
 11
891.0
 21
130.0
 31
0.0
  0
TEXT
  5
171
330
17
100
AcDbEntity
  8
DIMS
100
AcDbText
 10
891.5
 20
105.8
 30
0.0
 40
3.0
  1
42
 11
891.5
 21
105.8
 31
0.0
100
AcDbText
  0
LINE
  5
172
330
17
100
AcDbEntity
  8
DIMS
100
AcDbLine
 10
700.0
 20
86.0
 30
0.0
 11
666.0
 21
86.0
 31
0.0
  0
LINE
  5
173
330
17
100
AcDbEntity
  8
DIMS
100
AcDbLine
 10
700.0
 20
158.0
 30
0.0
 11
666.0
 21
158.0
 31
0.0
  0
LINE
  5
174
330
17
100
AcDbEntity
  8
DIMS
100
AcDbLine
 10
666.0
 20
86.0
 30
0.0
 11
666.0
 21
158.0
 31
0.0
  0
LINE
  5
175
330
17
100
AcDbEntity
  8
DIMS
100
AcDbLine
 10
664.0
 20
84.0
 30
0.0
 11
668.0
 21
88.0
 31
0.0
  0
LINE
  5
176
330
17
100
AcDbEntity
  8
DIMS
100
AcDbLine
 10
664.0
 20
156.0
 30
0.0
 11
668.0
 21
160.0
 31
0.0
  0
TEXT
  5
177
330
17
100
AcDbEntity
  8
DIMS
100
AcDbText
 10
668.5
 20
120.8
 30
0.0
 40
3.0
  1
72
 11
668.5
 21
120.8
 31
0.0
100
AcDbText
  0
LINE
  5
178
330
17
100
AcDbEntity
  8
ANNOTATIONS
100
AcDbLine
 10
721.0
 20
129.2
 30
0.0
 11
660.0
 21
149.2
 31
0.0
  0
LINE
  5
179
330
17
100
AcDbEntity
  8
ANNOTATIONS
100
AcDbLine
 10
721.0
 20
129.2
 30
0.0
 11
719.115260448985
 21
130.84248495422025
 31
0.0
  0
LINE
  5
17A
330
17
100
AcDbEntity
  8
ANNOTATIONS
100
AcDbLine
 10
721.0
 20
129.2
 30
0.0
 11
718.5086427233152
 21
128.9923008909272
 31
0.0
  0
TEXT
  5
17B
330
17
100
AcDbEntity
  8
ANNOTATIONS
100
AcDbText
 10
656.0
 20
148.0
 30
0.0
 40
2.8
  1
inner wall 3
 72
2
 11
656.0
 21
148.0
 31
0.0
100
AcDbText
  0
LINE
  5
17C
330
17
100
AcDbEntity
  8
ANNOTATIONS
100
AcDbLine
 10
820.5
 20
88.0
 30
0.0
 11
895.0
 21
120.0
 31
0.0
  0
LINE
  5
17D
330
17
100
AcDbEntity
  8
ANNOTATIONS
100
AcDbLine
 10
820.5
 20
88.0
 30
0.0
 11
822.9999593661937
 21
88.01425367954361
 31
0.0
  0
LINE
  5
17E
330
17
100
AcDbEntity
  8
ANNOTATIONS
100
AcDbLine
 10
820.5
 20
88.0
 30
0.0
 11
822.2315134996841
 21
89.80329171251125
 31
0.0
  0
TEXT
  5
17F
330
17
100
AcDbEntity
  8
ANNOTATIONS
100
AcDbText
 10
899.0
 20
118.8
 30
0.0
 40
2.8
  1
recess ≈ 12 deep
 11
899.0
 21
118.8
 31
0.0
100
AcDbText
  0
TEXT
  5
180
330
17
100
AcDbEntity
  8
TITLE
100
AcDbText
 10
40.0
 20
-280.0
 30
0.0
 40
4.0
  1
KEY DIMENSIONS / FIT
 11
40.0
 21
-280.0
 31
0.0
100
AcDbText
  0
TEXT
  5
181
330
17
100
AcDbEntity
  8
TEXT
100
AcDbText
 10
40.0
 20
-292.0
 30
0.0
 40
2.7
  1
• Designed for average phone + slim case: 78 × 160 × 12 mm
 11
40.0
 21
-292.0
 31
0.0
100
AcDbText
  0
TEXT
  5
182
330
17
100
AcDbEntity
  8
TEXT
100
AcDbText
 10
40.0
 20
-299.0
 30
0.0
 40
2.7
  1
• Phone stand clear width 88 mm (>+10 mm side clearance)
 11
40.0
 21
-299.0
 31
0.0
100
AcDbText
  0
TEXT
  5
183
330
17
100
AcDbEntity
  8
TEXT
100
AcDbText
 10
40.0
 20
-306.0
 30
0.0
 40
2.7
  1
• Backrest angle 65° from horizontal (~25° from vertical) for viewing / video
 11
40.0
 21
-306.0
 31
0.0
100
AcDbText
  0
TEXT
  5
184
330
17
100
AcDbEntity
  8
TEXT
100
AcDbText
 10
40.0
 20
-313.0
 30
0.0
 40
2.7
  1
• Lip 12 × 8 mm prevents slide-off; works in portrait (primary) or landscape
 11
40.0
 21
-313.0
 31
0.0
100
AcDbText
  0
TEXT
  5
185
330
17
100
AcDbEntity
  8
TEXT
100
AcDbText
 10
40.0
 20
-320.0
 30
0.0
 40
2.7
  1
• Pen bin ID ≈ 42 × 36 × 69 mm (5–8 pens)
 11
40.0
 21
-320.0
 31
0.0
100
AcDbText
  0
TEXT
  5
186
330
17
100
AcDbEntity
  8
TEXT
100
AcDbText
 10
40.0
 20
-327.0
 30
0.0
 40
2.7
  1
• Card tiers pocket depth 22 mm each — business cards / sticky notes
 11
40.0
 21
-327.0
 31
0.0
100
AcDbText
  0
TEXT
  5
187
330
17
100
AcDbEntity
  8
TEXT
100
AcDbText
 10
40.0
 20
-334.0
 30
0.0
 40
2.7
  1
• Shallow tray recess 12 mm — coins, clips, USB drives
 11
40.0
 21
-334.0
 31
0.0
100
AcDbText
  0
TEXT
  5
188
330
17
100
AcDbEntity
  8
TEXT
100
AcDbText
 10
40.0
 20
-341.0
 30
0.0
 40
2.7
  1
• Suggested print: PETG or PLA+, 3 walls, 15–20% infill; print on base
 11
40.0
 21
-341.0
 31
0.0
100
AcDbText
  0
TEXT
  5
189
330
17
100
AcDbEntity
  8
TEXT
100
AcDbText
 10
40.0
 20
-348.0
 30
0.0
 40
2.7
  1
• Optional: add cable notch in lip center (10 mm) for charging while docked
 11
40.0
 21
-348.0
 31
0.0
100
AcDbText
  0
ENDSEC
  0
SECTION
  2
OBJECTS
  0
DICTIONARY
  5
A
330
0
100
AcDbDictionary
281
1
  3
ACAD_COLOR
350
B
  3
ACAD_GROUP
350
C
  3
ACAD_LAYOUT
350
D
  3
ACAD_MATERIAL
350
E
  3
ACAD_MLEADERSTYLE
350
F
  3
ACAD_MLINESTYLE
350
10
  3
ACAD_PLOTSETTINGS
350
11
  3
ACAD_PLOTSTYLENAME
350
12
  3
ACAD_SCALELIST
350
14
  3
ACAD_TABLESTYLE
350
15
  3
ACAD_VISUALSTYLE
350
16
  3
EZDXF_META
350
2D
  0
DICTIONARY
  5
B
330
A
100
AcDbDictionary
281
1
  0
DICTIONARY
  5
C
330
A
100
AcDbDictionary
281
1
  0
DICTIONARY
  5
D
330
A
100
AcDbDictionary
281
1
  3
Model
350
1A
  3
Layout1
350
1E
  0
DICTIONARY
  5
E
330
A
100
AcDbDictionary
281
1
  3
ByBlock
350
1F
  3
ByLayer
350
20
  3
Global
350
21
  0
DICTIONARY
  5
F
330
A
100
AcDbDictionary
281
1
  3
Standard
350
2C
  0
DICTIONARY
  5
10
330
A
100
AcDbDictionary
281
1
  3
Standard
350
22
  0
DICTIONARY
  5
11
330
A
100
AcDbDictionary
281
1
  0
ACDBDICTIONARYWDFLT
  5
12
330
A
100
AcDbDictionary
281
1
  3
Normal
350
13
100
AcDbDictionaryWithDefault
340
13
  0
ACDBPLACEHOLDER
  5
13
330
12
  0
DICTIONARY
  5
14
330
A
100
AcDbDictionary
281
1
  0
DICTIONARY
  5
15
330
A
100
AcDbDictionary
281
1
  0
DICTIONARY
  5
16
330
A
100
AcDbDictionary
281
1
  0
LAYOUT
  5
1A
330
D
100
AcDbPlotSettings
  1

  4
A3
  6

 40
7.5
 41
20.0
 42
7.5
 43
20.0
 44
420.0
 45
297.0
 46
0.0
 47
0.0
 48
0.0
 49
0.0
140
0.0
141
0.0
142
1.0
143
1.0
 70
1024
 72
1
 73
0
 74
5
  7

 75
16
 76
0
 77
2
 78
300
147
1.0
148
0.0
149
0.0
100
AcDbLayout
  1
Model
 70
1
 71
0
 10
0.0
 20
0.0
 11
420.0
 21
297.0
 12
0.0
 22
0.0
 32
0.0
 14
1e+20
 24
1e+20
 34
1e+20
 15
-1e+20
 25
-1e+20
 35
-1e+20
146
0.0
 13
0.0
 23
0.0
 33
0.0
 16
1.0
 26
0.0
 36
0.0
 17
0.0
 27
1.0
 37
0.0
 76
1
330
17
  0
LAYOUT
  5
1E
330
D
100
AcDbPlotSettings
  1

  4
A3
  6

 40
7.5
 41
20.0
 42
7.5
 43
20.0
 44
420.0
 45
297.0
 46
0.0
 47
0.0
 48
0.0
 49
0.0
140
0.0
141
0.0
142
1.0
143
1.0
 70
0
 72
1
 73
0
 74
5
  7

 75
16
 76
0
 77
2
 78
300
147
1.0
148
0.0
149
0.0
100
AcDbLayout
  1
Layout1
 70
1
 71
1
 10
0.0
 20
0.0
 11
420.0
 21
297.0
 12
0.0
 22
0.0
 32
0.0
 14
1e+20
 24
1e+20
 34
1e+20
 15
-1e+20
 25
-1e+20
 35
-1e+20
146
0.0
 13
0.0
 23
0.0
 33
0.0
 16
1.0
 26
0.0
 36
0.0
 17
0.0
 27
1.0
 37
0.0
 76
1
330
1B
  0
MATERIAL
  5
1F
102
{ACAD_REACTORS
330
E
102
}
330
E
100
AcDbMaterial
  1
ByBlock
  2

 70
0
 40
1.0
 71
1
 41
1.0
 91
-1023410177
 42
1.0
 72
1
  3

 73
1
 74
1
 75
1
 44
0.5
 73
0
 45
1.0
 46
1.0
 77
1
  4

 78
1
 79
1
170
1
 48
1.0
171
1
  6

172
1
173
1
174
1
140
1.0
141
1.0
175
1
  7

176
1
177
1
178
1
143
1.0
179
1
  8

270
1
271
1
272
1
145
1.0
146
1.0
273
1
  9

274
1
275
1
276
1
 42
1.0
 72
1
  3

 73
1
 74
1
 75
1
 94
63
  0
MATERIAL
  5
20
102
{ACAD_REACTORS
330
E
102
}
330
E
100
AcDbMaterial
  1
ByLayer
  2

 70
0
 40
1.0
 71
1
 41
1.0
 91
-1023410177
 42
1.0
 72
1
  3

 73
1
 74
1
 75
1
 44
0.5
 73
0
 45
1.0
 46
1.0
 77
1
  4

 78
1
 79
1
170
1
 48
1.0
171
1
  6

172
1
173
1
174
1
140
1.0
141
1.0
175
1
  7

176
1
177
1
178
1
143
1.0
179
1
  8

270
1
271
1
272
1
145
1.0
146
1.0
273
1
  9

274
1
275
1
276
1
 42
1.0
 72
1
  3

 73
1
 74
1
 75
1
 94
63
  0
MATERIAL
  5
21
102
{ACAD_REACTORS
330
E
102
}
330
E
100
AcDbMaterial
  1
Global
  2

 70
0
 40
1.0
 71
1
 41
1.0
 91
-1023410177
 42
1.0
 72
1
  3

 73
1
 74
1
 75
1
 44
0.5
 73
0
 45
1.0
 46
1.0
 77
1
  4

 78
1
 79
1
170
1
 48
1.0
171
1
  6

172
1
173
1
174
1
140
1.0
141
1.0
175
1
  7

176
1
177
1
178
1
143
1.0
179
1
  8

270
1
271
1
272
1
145
1.0
146
1.0
273
1
  9

274
1
275
1
276
1
 42
1.0
 72
1
  3

 73
1
 74
1
 75
1
 94
63
  0
MLINESTYLE
  5
22
102
{ACAD_REACTORS
330
10
102
}
330
10
100
AcDbMlineStyle
  2
Standard
 70
0
  3

 62
256
 51
90.0
 52
90.0
 71
2
 49
0.5
 62
256
  6
BYLAYER
 49
-0.5
 62
256
  6
BYLAYER
  0
MLEADERSTYLE
  5
2C
102
{ACAD_REACTORS
330
F
102
}
330
F
100
AcDbMLeaderStyle
179
2
170
2
171
1
172
0
 90
2
 40
0.0
 41
0.0
173
1
 91
-1056964608
 92
-2
290
1
 42
2.0
291
1
 43
8.0
  3
Standard
 44
4.0
300

342
29
174
1
175
1
176
0
178
1
 93
-1056964608
 45
4.0
292
0
297
0
 46
4.0
 94
-1056964608
 47
1.0
 49
1.0
140
1.0
294
1
141
0.0
177
0
142
1.0
295
0
296
0
143
3.75
271
0
272
9
273
9
  0
DICTIONARY
  5
2D
330
A
100
AcDbDictionary
280
1
281
1
  3
CREATED_BY_EZDXF
350
2E
  3
WRITTEN_BY_EZDXF
350
18C
  0
DICTIONARYVAR
  5
2E
330
2D
100
DictionaryVariables
280
0
  1
1.4.4 @ 2026-08-06T06:00:41.324942+00:00
  0
DICTIONARYVAR
  5
18C
330
2D
100
DictionaryVariables
280
0
  1
1.4.4 @ 2026-08-06T06:00:41.329975+00:00
  0
ENDSEC
  0
EOF
